Bodoni-16-Bold-Italic.ufo
<glyph name="dollar" format="2">
  <advance width="1199"/>
  <unicode hex="0024"/>
  <outline>
    <contour>
      <point x="748" y="1660" type="line"/>
      <point x="781" y="1660" type="line"/>
      <point x="361" y="-160" type="line"/>
      <point x="328" y="-160" type="line"/>
    </contour>
    <contour>
      <point x="909" y="1660" type="line"/>
      <point x="942" y="1660" type="line"/>
      <point x="522" y="-160" type="line"/>
      <point x="489" y="-160" type="line"/>
    </contour>
    <contour>
      <point x="500" y="1244" type="curve" smooth="yes"/>
      <point x="500" y="900"/>
      <point x="1130" y="1020"/>
      <point x="1130" y="490" type="curve" smooth="yes"/>
      <point x="1130" y="160"/>
      <point x="812" y="-30"/>
      <point x="530" y="-30" type="curve" smooth="yes"/>
      <point x="258" y="-30"/>
      <point x="60" y="145"/>
      <point x="60" y="325" type="curve" smooth="yes"/>
      <point x="60" y="427"/>
      <point x="122" y="514"/>
      <point x="230" y="514" type="curve" smooth="yes"/>
      <point x="310" y="514"/>
      <point x="388" y="455"/>
      <point x="388" y="357" type="curve" smooth="yes"/>
      <point x="388" y="247"/>
      <point x="307" y="192"/>
      <point x="219" y="192" type="curve" smooth="yes"/>
      <point x="169" y="192"/>
      <point x="129" y="217"/>
      <point x="112" y="237" type="curve"/>
      <point x="157" y="129"/>
      <point x="301" y="-2"/>
      <point x="530" y="-2" type="curve" smooth="yes"/>
      <point x="742" y="-2"/>
      <point x="870" y="142"/>
      <point x="870" y="300" type="curve" smooth="yes"/>
      <point x="870" y="690"/>
      <point x="250" y="520"/>
      <point x="250" y="1030" type="curve" smooth="yes"/>
      <point x="250" y="1320"/>
      <point x="552" y="1520"/>
      <point x="804" y="1520" type="curve" smooth="yes"/>
      <point x="1020" y="1520"/>
      <point x="1220" y="1377"/>
      <point x="1220" y="1205" type="curve" smooth="yes"/>
      <point x="1220" y="1113"/>
      <point x="1161" y="1025"/>
      <point x="1053" y="1025" type="curve" smooth="yes"/>
      <point x="973" y="1025"/>
      <point x="892" y="1079"/>
      <point x="892" y="1184" type="curve" smooth="yes"/>
      <point x="892" y="1284"/>
      <point x="980" y="1338"/>
      <point x="1058" y="1338" type="curve" smooth="yes"/>
      <point x="1108" y="1338"/>
      <point x="1146" y="1309"/>
      <point x="1159" y="1291" type="curve"/>
      <point x="1130" y="1385"/>
      <point x="995" y="1487"/>
      <point x="814" y="1487" type="curve" smooth="yes"/>
      <point x="602" y="1487"/>
      <point x="500" y="1372"/>
    </contour>
  </outline>
</glyph>
<glyph name="ampersand" format="2">
  <advance width="3436"/>
  <unicode hex="0026"/>
  <outline>
    <contour>
      <point x="1702" y="1911" type="line"/>
      <point x="1984" y="2098"/>
      <point x="2114" y="2320"/>
      <point x="2114" y="2562" type="curve" smooth="yes"/>
      <point x="2114" y="2814"/>
      <point x="2052" y="3063"/>
      <point x="1876" y="3063" type="curve" smooth="yes"/>
      <point x="1649" y="3063"/>
      <point x="1548" y="2798"/>
      <point x="1548" y="2540" type="curve" smooth="yes"/>
      <point x="1548" y="2397"/>
      <point x="1596" y="2185"/>
      <point x="1728" y="1925" type="curve" smooth="yes"/>
      <point x="2502" y="389" type="line" smooth="yes"/>
      <point x="2586" y="217"/>
      <point x="2659" y="66"/>
      <point x="2823" y="66" type="curve" smooth="yes"/>
      <point x="2981" y="66"/>
      <point x="3092" y="155"/>
      <point x="3170" y="303" type="curve"/>
      <point x="3211" y="287" type="line"/>
      <point x="3133" y="107"/>
      <point x="2945" y="-41"/>
      <point x="2580" y="-41" type="curve" smooth="yes"/>
      <point x="2281" y="-41"/>
      <point x="2023" y="53"/>
      <point x="1806" y="434" type="curve" smooth="yes"/>
      <point x="1040" y="1925" type="line" smooth="yes"/>
      <point x="948" y="2095"/>
      <point x="914" y="2245"/>
      <point x="914" y="2388" type="curve" smooth="yes"/>
      <point x="914" y="2798"/>
      <point x="1364" y="3113"/>
      <point x="1921" y="3113" type="curve" smooth="yes"/>
      <point x="2277" y="3113"/>
      <point x="2704" y="2965"/>
      <point x="2704" y="2586" type="curve" smooth="yes"/>
      <point x="2704" y="2121"/>
      <point x="2067" y="1985"/>
      <point x="1716" y="1857" type="curve"/>
    </contour>
    <contour>
      <point x="1200" y="1672" type="curve"/>
      <point x="1229" y="1626" type="line"/>
      <point x="975" y="1456"/>
      <point x="737" y="1148"/>
      <point x="737" y="716" type="curve" smooth="yes"/>
      <point x="737" y="345"/>
      <point x="1024" y="76"/>
      <point x="1409" y="76" type="curve" smooth="yes"/>
      <point x="2274" y="76"/>
      <point x="3219" y="830"/>
      <point x="3270" y="1414" type="curve" smooth="yes"/>
      <point x="3276" y="1482" type="line"/>
      <point x="3246" y="1310"/>
      <point x="3092" y="1168"/>
      <point x="2912" y="1168" type="curve" smooth="yes"/>
      <point x="2707" y="1168"/>
      <point x="2592" y="1340"/>
      <point x="2592" y="1504" type="curve" smooth="yes"/>
      <point x="2592" y="1688"/>
      <point x="2757" y="1839"/>
      <point x="2949" y="1839" type="curve" smooth="yes"/>
      <point x="3167" y="1839"/>
      <point x="3334" y="1667"/>
      <point x="3334" y="1438" type="curve" smooth="yes"/>
      <point x="3334" y="865"/>
      <point x="2350" y="-41"/>
      <point x="1122" y="-41" type="curve" smooth="yes"/>
      <point x="556" y="-41"/>
      <point x="82" y="156"/>
      <point x="82" y="654" type="curve" smooth="yes"/>
      <point x="82" y="1259"/>
      <point x="592" y="1451"/>
    </contour>
  </outline>
</glyph>
<glyph name="parenleft" format="2">
  <advance width="746"/>
  <unicode hex="0028"/>
  <outline>
    <contour>
      <point x="571" y="-317" type="curve"/>
      <point x="559" y="-340" type="line"/>
      <point x="333" y="-240"/>
      <point x="167" y="24"/>
      <point x="167" y="370" type="curve" smooth="yes"/>
      <point x="167" y="956"/>
      <point x="603" y="1440"/>
      <point x="989" y="1600" type="curve"/>
      <point x="1001" y="1577" type="line"/>
      <point x="693" y="1377"/>
      <point x="438" y="630"/>
      <point x="438" y="166" type="curve" smooth="yes"/>
      <point x="438" y="-88"/>
      <point x="481" y="-217"/>
    </contour>
  </outline>
</glyph>
<glyph name="asterisk" format="2">
  <advance width="2600"/>
  <unicode hex="002A"/>
  <outline>
    <contour>
      <point x="1106" y="2702" type="curve" smooth="yes"/>
      <point x="1362" y="2507"/>
      <point x="1202" y="2211"/>
      <point x="1570" y="2007" type="curve"/>
      <point x="1540" y="1962" type="line"/>
      <point x="1151" y="2187"/>
      <point x="989" y="2003"/>
      <point x="704" y="2126" type="curve" smooth="yes"/>
      <point x="503" y="2216"/>
      <point x="453" y="2439"/>
      <point x="553" y="2609" type="curve" smooth="yes"/>
      <point x="661" y="2791"/>
      <point x="918" y="2833"/>
    </contour>
    <contour>
      <point x="586" y="1823" type="curve" smooth="yes"/>
      <point x="881" y="1911"/>
      <point x="1151" y="1786"/>
      <point x="1540" y="2011" type="curve"/>
      <point x="1568" y="1962" type="line"/>
      <point x="1179" y="1737"/>
      <point x="1098" y="1487"/>
      <point x="848" y="1284" type="curve" smooth="yes"/>
      <point x="664" y="1140"/>
      <point x="442" y="1149"/>
      <point x="338" y="1323" type="curve" smooth="yes"/>
      <point x="230" y="1499"/>
      <point x="348" y="1757"/>
    </contour>
    <contour>
      <point x="1071" y="1134" type="curve" smooth="yes"/>
      <point x="1151" y="1445"/>
      <point x="1471" y="1576"/>
      <point x="1532" y="1986" type="curve"/>
      <point x="1581" y="1986" type="line"/>
      <point x="1499" y="1494"/>
      <point x="1718" y="1421"/>
      <point x="1718" y="1114" type="curve" smooth="yes"/>
      <point x="1718" y="901"/>
      <point x="1550" y="729"/>
      <point x="1346" y="729" type="curve" smooth="yes"/>
      <point x="1162" y="729"/>
      <point x="1005" y="870"/>
    </contour>
    <contour>
      <point x="2009" y="1278" type="curve" smooth="yes"/>
      <point x="1753" y="1473"/>
      <point x="1908" y="1762"/>
      <point x="1540" y="1966" type="curve"/>
      <point x="1568" y="2007" type="line"/>
      <point x="1957" y="1782"/>
      <point x="2121" y="1969"/>
      <point x="2406" y="1848" type="curve" smooth="yes"/>
      <point x="2607" y="1758"/>
      <point x="2658" y="1534"/>
      <point x="2558" y="1364" type="curve" smooth="yes"/>
      <point x="2450" y="1184"/>
      <point x="2193" y="1149"/>
    </contour>
    <contour>
      <point x="2526" y="2150" type="curve" smooth="yes"/>
      <point x="2231" y="2062"/>
      <point x="1960" y="2185"/>
      <point x="1571" y="1960" type="curve"/>
      <point x="1542" y="2007" type="line"/>
      <point x="1931" y="2232"/>
      <point x="2013" y="2486"/>
      <point x="2263" y="2689" type="curve" smooth="yes"/>
      <point x="2447" y="2833"/>
      <point x="2669" y="2824"/>
      <point x="2773" y="2650" type="curve" smooth="yes"/>
      <point x="2881" y="2474"/>
      <point x="2764" y="2216"/>
    </contour>
    <contour>
      <point x="2040" y="2838" type="curve" smooth="yes"/>
      <point x="1968" y="2527"/>
      <point x="1642" y="2396"/>
      <point x="1581" y="1986" type="curve"/>
      <point x="1530" y="1986" type="line"/>
      <point x="1612" y="2478"/>
      <point x="1392" y="2552"/>
      <point x="1392" y="2859" type="curve" smooth="yes"/>
      <point x="1392" y="3072"/>
      <point x="1561" y="3244"/>
      <point x="1765" y="3244" type="curve" smooth="yes"/>
      <point x="1949" y="3244"/>
      <point x="2100" y="3104"/>
    </contour>
  </outline>
</glyph>
<glyph name="comma" format="2">
  <advance width="549"/>
  <unicode hex="002C"/>
  <outline>
    <contour>
      <point x="50" y="155" type="curve" smooth="yes"/>
      <point x="50" y="251"/>
      <point x="138" y="336"/>
      <point x="244" y="336" type="curve" smooth="yes"/>
      <point x="352" y="336"/>
      <point x="441" y="261"/>
      <point x="441" y="115" type="curve" smooth="yes"/>
      <point x="441" y="-133"/>
      <point x="171" y="-312"/>
      <point x="-69" y="-312" type="curve"/>
      <point x="-69" y="-284" type="line"/>
      <point x="129" y="-284"/>
      <point x="398" y="-141"/>
      <point x="407" y="104" type="curve"/>
      <point x="382" y="34"/>
      <point x="310" y="-20"/>
      <point x="227" y="-20" type="curve" smooth="yes"/>
      <point x="117" y="-20"/>
      <point x="50" y="62"/>
    </contour>
  </outline>
</glyph>
<glyph name="hyphen" format="2">
  <advance width="1474"/>
  <unicode hex="002D"/>
  <outline>
    <contour>
      <point x="340" y="1155" type="line"/>
      <point x="1323" y="1155" type="line"/>
      <point x="1323" y="1098" type="line"/>
      <point x="340" y="1098" type="line"/>
    </contour>
  </outline>
</glyph>
<glyph name="two" format="2">
  <advance width="1209"/>
  <unicode hex="0032"/>
  <outline>
    <contour>
      <point x="226" y="1102" type="curve"/>
      <point x="246" y="1159"/>
      <point x="306" y="1214"/>
      <point x="385" y="1214" type="curve" smooth="yes"/>
      <point x="476" y="1214"/>
      <point x="550" y="1150"/>
      <point x="550" y="1057" type="curve" smooth="yes"/>
      <point x="550" y="947"/>
      <point x="457" y="874"/>
      <point x="367" y="874" type="curve" smooth="yes"/>
      <point x="277" y="874"/>
      <point x="186" y="934"/>
      <point x="186" y="1058" type="curve" smooth="yes"/>
      <point x="186" y="1292"/>
      <point x="436" y="1520"/>
      <point x="750" y="1520" type="curve" smooth="yes"/>
      <point x="972" y="1520"/>
      <point x="1184" y="1430"/>
      <point x="1184" y="1204" type="curve" smooth="yes"/>
      <point x="1184" y="970"/>
      <point x="830" y="784"/>
      <point x="671" y="676" type="curve" smooth="yes"/>
      <point x="171" y="300" type="line"/>
      <point x="988" y="300" type="line"/>
      <point x="1022" y="450" type="line"/>
      <point x="1050" y="450" type="line"/>
      <point x="948" y="0" type="line"/>
      <point x="-82" y="0" type="line"/>
      <point x="-34" y="200" type="line"/>
      <point x="486" y="582" type="line" smooth="yes"/>
      <point x="696" y="731"/>
      <point x="862" y="982"/>
      <point x="862" y="1174" type="curve" smooth="yes"/>
      <point x="862" y="1356"/>
      <point x="786" y="1453"/>
      <point x="620" y="1453" type="curve" smooth="yes"/>
      <point x="436" y="1453"/>
      <point x="239" y="1276"/>
    </contour>
  </outline>
</glyph>
<glyph name="three" format="2">
  <advance width="1151"/>
  <unicode hex="0033"/>
  <outline>
    <contour>
      <point x="285" y="1210" type="curve" smooth="yes"/>
      <point x="285" y="1374"/>
      <point x="478" y="1518"/>
      <point x="722" y="1518" type="curve" smooth="yes"/>
      <point x="944" y="1518"/>
      <point x="1172" y="1453"/>
      <point x="1172" y="1223" type="curve" smooth="yes"/>
      <point x="1172" y="993"/>
      <point x="928" y="805"/>
      <point x="466" y="805" type="curve"/>
      <point x="466" y="825" type="line"/>
      <point x="784" y="825"/>
      <point x="860" y="1137"/>
      <point x="860" y="1272" type="curve" smooth="yes"/>
      <point x="860" y="1424"/>
      <point x="804" y="1483"/>
      <point x="666" y="1483" type="curve" smooth="yes"/>
      <point x="540" y="1483"/>
      <point x="410" y="1412"/>
      <point x="365" y="1327" type="curve"/>
      <point x="377" y="1340"/>
      <point x="415" y="1358"/>
      <point x="459" y="1358" type="curve" smooth="yes"/>
      <point x="549" y="1358"/>
      <point x="613" y="1288"/>
      <point x="613" y="1198" type="curve" smooth="yes"/>
      <point x="613" y="1098"/>
      <point x="529" y="1036"/>
      <point x="449" y="1036" type="curve" smooth="yes"/>
      <point x="359" y="1036"/>
      <point x="285" y="1108"/>
    </contour>
    <contour>
      <point x="10" y="317" type="curve" smooth="yes"/>
      <point x="10" y="429"/>
      <point x="80" y="502"/>
      <point x="180" y="502" type="curve" smooth="yes"/>
      <point x="270" y="502"/>
      <point x="338" y="432"/>
      <point x="338" y="340" type="curve" smooth="yes"/>
      <point x="338" y="246"/>
      <point x="262" y="180"/>
      <point x="174" y="180" type="curve" smooth="yes"/>
      <point x="124" y="180"/>
      <point x="81" y="204"/>
      <point x="65" y="224" type="curve"/>
      <point x="88" y="131"/>
      <point x="208" y="14"/>
      <point x="416" y="14" type="curve" smooth="yes"/>
      <point x="654" y="14"/>
      <point x="750" y="315"/>
      <point x="750" y="510" type="curve" smooth="yes"/>
      <point x="750" y="662"/>
      <point x="694" y="799"/>
      <point x="466" y="799" type="curve"/>
      <point x="466" y="818" type="line"/>
      <point x="888" y="818"/>
      <point x="1062" y="696"/>
      <point x="1062" y="466" type="curve" smooth="yes"/>
      <point x="1062" y="170"/>
      <point x="744" y="-20"/>
      <point x="442" y="-20" type="curve" smooth="yes"/>
      <point x="148" y="-20"/>
      <point x="10" y="163"/>
    </contour>
  </outline>
</glyph>
<glyph name="four" format="2">
  <advance width="2705"/>
  <unicode hex="0034"/>
  <outline>
    <contour>
      <point x="2274" y="57" type="line"/>
      <point x="2274" y="0" type="line"/>
      <point x="942" y="0" type="line"/>
      <point x="942" y="57" type="line"/>
    </contour>
    <contour>
      <point x="2664" y="3072" type="line"/>
      <point x="1925" y="0" type="line"/>
      <point x="1290" y="0" type="line"/>
      <point x="1935" y="2816" type="line"/>
      <point x="280" y="909" type="line"/>
      <point x="2580" y="909" type="line"/>
      <point x="2580" y="852" type="line"/>
      <point x="158" y="852" type="line"/>
      <point x="2093" y="3072" type="line"/>
    </contour>
  </outline>
</glyph>
<glyph name="five" format="2">
  <advance width="2308"/>
  <unicode hex="0035"/>
  <outline>
    <contour>
      <point x="2162" y="1126" type="curve" smooth="yes"/>
      <point x="2162" y="430"/>
      <point x="1421" y="-41"/>
      <point x="803" y="-41" type="curve" smooth="yes"/>
      <point x="303" y="-41"/>
      <point x="0" y="254"/>
      <point x="0" y="590" type="curve" smooth="yes"/>
      <point x="0" y="799"/>
      <point x="152" y="946"/>
      <point x="336" y="946" type="curve" smooth="yes"/>
      <point x="500" y="946"/>
      <point x="672" y="819"/>
      <point x="672" y="614" type="curve" smooth="yes"/>
      <point x="672" y="410"/>
      <point x="516" y="287"/>
      <point x="336" y="287" type="curve" smooth="yes"/>
      <point x="221" y="287"/>
      <point x="140" y="346"/>
      <point x="116" y="383" type="curve"/>
      <point x="186" y="203"/>
      <point x="396" y="16"/>
      <point x="762" y="16" type="curve" smooth="yes"/>
      <point x="1290" y="16"/>
      <point x="1508" y="762"/>
      <point x="1508" y="1229" type="curve" smooth="yes"/>
      <point x="1508" y="1573"/>
      <point x="1368" y="1788"/>
      <point x="1106" y="1788" type="curve" smooth="yes"/>
      <point x="852" y="1788"/>
      <point x="567" y="1670"/>
      <point x="426" y="1482" type="curve"/>
      <point x="372" y="1482" type="line"/>
      <point x="519" y="1715"/>
      <point x="855" y="1864"/>
      <point x="1228" y="1864" type="curve" smooth="yes"/>
      <point x="1765" y="1864"/>
      <point x="2162" y="1658"/>
    </contour>
    <contour>
      <point x="2347" y="2458" type="line"/>
      <point x="741" y="2458" type="line"/>
      <point x="402" y="1482" type="line"/>
      <point x="348" y="1482" type="line"/>
      <point x="889" y="3072" type="line"/>
      <point x="2427" y="3072" type="line"/>
      <point x="2476" y="3297" type="line"/>
      <point x="2533" y="3297" type="line"/>
    </contour>
  </outline>
</glyph>
<glyph name="seven" format="2">
  <advance width="1112"/>
  <unicode hex="0037"/>
  <outline>
    <contour>
      <point x="284" y="172" type="curve" smooth="yes"/>
      <point x="284" y="344"/>
      <point x="518" y="554"/>
      <point x="689" y="762" type="curve" smooth="yes"/>
      <point x="800" y="895"/>
      <point x="908" y="1035"/>
      <point x="1031" y="1190" type="curve"/>
      <point x="290" y="1190" type="line"/>
      <point x="257" y="1040" type="line"/>
      <point x="229" y="1040" type="line"/>
      <point x="331" y="1500" type="line"/>
      <point x="1313" y="1500" type="line"/>
      <point x="1313" y="1500"/>
      <point x="968" y="1050"/>
      <point x="764" y="800" type="curve" smooth="yes"/>
      <point x="621" y="624"/>
      <point x="522" y="508"/>
      <point x="522" y="418" type="curve" smooth="yes"/>
      <point x="522" y="328"/>
      <point x="654" y="300"/>
      <point x="654" y="166" type="curve" smooth="yes"/>
      <point x="654" y="62"/>
      <point x="582" y="-20"/>
      <point x="464" y="-20" type="curve" smooth="yes"/>
      <point x="366" y="-20"/>
      <point x="284" y="44"/>
    </contour>
  </outline>
</glyph>
<glyph name="eight" format="2">
  <advance width="1219"/>
  <unicode hex="0038"/>
  <outline>
    <contour>
      <point x="550" y="980" type="curve" smooth="yes"/>
      <point x="550" y="895"/>
      <point x="567" y="782"/>
      <point x="657" y="782" type="curve" smooth="yes"/>
      <point x="805" y="782"/>
      <point x="910" y="1085"/>
      <point x="910" y="1280" type="curve" smooth="yes"/>
      <point x="910" y="1355"/>
      <point x="893" y="1492"/>
      <point x="798" y="1492" type="curve" smooth="yes"/>
      <point x="670" y="1492"/>
      <point x="550" y="1175"/>
    </contour>
    <contour>
      <point x="240" y="1050" type="curve" smooth="yes"/>
      <point x="240" y="1290"/>
      <point x="488" y="1520"/>
      <point x="800" y="1520" type="curve" smooth="yes"/>
      <point x="1072" y="1520"/>
      <point x="1220" y="1350"/>
      <point x="1220" y="1190" type="curve" smooth="yes"/>
      <point x="1220" y="940"/>
      <point x="942" y="761"/>
      <point x="660" y="761" type="curve" smooth="yes"/>
      <point x="418" y="761"/>
      <point x="240" y="890"/>
    </contour>
    <contour>
      <point x="360" y="240" type="curve" smooth="yes"/>
      <point x="360" y="115"/>
      <point x="402" y="8"/>
      <point x="510" y="8" type="curve" smooth="yes"/>
      <point x="678" y="8"/>
      <point x="790" y="325"/>
      <point x="790" y="520" type="curve" smooth="yes"/>
      <point x="790" y="645"/>
      <point x="748" y="754"/>
      <point x="640" y="754" type="curve" smooth="yes"/>
      <point x="472" y="754"/>
      <point x="360" y="435"/>
    </contour>
    <contour>
      <point x="60" y="300" type="curve" smooth="yes"/>
      <point x="60" y="540"/>
      <point x="248" y="776"/>
      <point x="620" y="776" type="curve" smooth="yes"/>
      <point x="932" y="776"/>
      <point x="1100" y="660"/>
      <point x="1100" y="460" type="curve" smooth="yes"/>
      <point x="1100" y="220"/>
      <point x="912" y="-20"/>
      <point x="540" y="-20" type="curve" smooth="yes"/>
      <point x="228" y="-20"/>
      <point x="60" y="100"/>
    </contour>
  </outline>
</glyph>
<glyph name="less" format="2">
  <advance width="1119"/>
  <unicode hex="003C"/>
  <outline>
    <contour>
      <point x="220" y="764" type="line"/>
      <point x="220" y="792" type="line"/>
      <point x="1180" y="1200" type="line"/>
      <point x="1180" y="1172" type="line"/>
    </contour>
    <contour>
      <point x="220" y="758" type="line"/>
      <point x="220" y="786" type="line"/>
      <point x="1000" y="378" type="line"/>
      <point x="1000" y="350" type="line"/>
    </contour>
  </outline>
</glyph>
<glyph name="question" format="2">
  <advance width="1169"/>
  <unicode hex="003F"/>
  <outline>
    <contour>
      <point x="598" y="695" type="curve"/>
      <point x="553" y="488" type="line"/>
      <point x="525" y="488" type="line"/>
      <point x="575" y="714" type="line"/>
      <point x="809" y="776"/>
      <point x="948" y="1034"/>
      <point x="948" y="1260" type="curve" smooth="yes"/>
      <point x="948" y="1388"/>
      <point x="910" y="1490"/>
      <point x="772" y="1490" type="curve" smooth="yes"/>
      <point x="557" y="1490"/>
      <point x="404" y="1348"/>
      <point x="377" y="1251" type="curve"/>
      <point x="395" y="1274"/>
      <point x="436" y="1300"/>
      <point x="484" y="1300" type="curve" smooth="yes"/>
      <point x="562" y="1300"/>
      <point x="638" y="1240"/>
      <point x="638" y="1150" type="curve" smooth="yes"/>
      <point x="638" y="1050"/>
      <point x="554" y="988"/>
      <point x="474" y="988" type="curve" smooth="yes"/>
      <point x="374" y="988"/>
      <point x="320" y="1060"/>
      <point x="320" y="1162" type="curve" smooth="yes"/>
      <point x="320" y="1326"/>
      <point x="528" y="1520"/>
      <point x="792" y="1520" type="curve" smooth="yes"/>
      <point x="1014" y="1520"/>
      <point x="1260" y="1430"/>
      <point x="1260" y="1190" type="curve" smooth="yes"/>
      <point x="1260" y="876"/>
      <point x="908" y="711"/>
    </contour>
    <component base="period" xOffset="298"/>
  </outline>
</glyph>
<glyph name="at" format="2">
  <advance width="4136"/>
  <unicode hex="0040"/>
  <outline>
    <contour>
      <point x="2406" y="1460" type="curve" smooth="yes"/>
      <point x="2406" y="810"/>
      <point x="2097" y="287"/>
      <point x="1626" y="287" type="curve" smooth="yes"/>
      <point x="1270" y="287"/>
      <point x="1000" y="516"/>
      <point x="1000" y="942" type="curve" smooth="yes"/>
      <point x="1000" y="1556"/>
      <point x="1448" y="2167"/>
      <point x="1974" y="2167" type="curve" smooth="yes"/>
      <point x="2334" y="2167"/>
      <point x="2406" y="1796"/>
    </contour>
    <contour>
      <point x="2360" y="1417" type="curve" smooth="yes"/>
      <point x="2360" y="1589"/>
      <point x="2338" y="1992"/>
      <point x="2144" y="1992" type="curve" smooth="yes"/>
      <point x="1925" y="1992"/>
      <point x="1659" y="1476"/>
      <point x="1659" y="968" type="curve" smooth="yes"/>
      <point x="1659" y="694"/>
      <point x="1720" y="463"/>
      <point x="1886" y="463" type="curve" smooth="yes"/>
      <point x="2095" y="463"/>
      <point x="2360" y="899"/>
    </contour>
    <contour>
      <point x="2274" y="860" type="curve" smooth="yes"/>
      <point x="2568" y="2130" type="line"/>
      <point x="3182" y="2130" type="line"/>
      <point x="2886" y="850" type="line" smooth="yes"/>
      <point x="2858" y="723"/>
      <point x="2734" y="383"/>
      <point x="2976" y="383" type="curve" smooth="yes"/>
      <point x="3437" y="383"/>
      <point x="3854" y="982"/>
      <point x="3854" y="1642" type="curve" smooth="yes"/>
      <point x="3854" y="2371"/>
      <point x="3404" y="3178"/>
      <point x="2392" y="3178" type="curve" smooth="yes"/>
      <point x="1233" y="3178"/>
      <point x="283" y="2117"/>
      <point x="283" y="864" type="curve" smooth="yes"/>
      <point x="283" y="-377"/>
      <point x="995" y="-819"/>
      <point x="1716" y="-819" type="curve" smooth="yes"/>
      <point x="2384" y="-819"/>
      <point x="2814" y="-622"/>
      <point x="3174" y="-221" type="curve"/>
      <point x="3215" y="-262" type="line"/>
      <point x="2871" y="-663"/>
      <point x="2384" y="-877"/>
      <point x="1716" y="-877" type="curve" smooth="yes"/>
      <point x="966" y="-877"/>
      <point x="225" y="-422"/>
      <point x="225" y="864" type="curve" smooth="yes"/>
      <point x="225" y="2146"/>
      <point x="1196" y="3236"/>
      <point x="2396" y="3236" type="curve" smooth="yes"/>
      <point x="3432" y="3236"/>
      <point x="3912" y="2392"/>
      <point x="3912" y="1642" type="curve" smooth="yes"/>
      <point x="3912" y="966"/>
      <point x="3530" y="279"/>
      <point x="2768" y="279" type="curve" smooth="yes"/>
      <point x="2280" y="279"/>
      <point x="2217" y="606"/>
    </contour>
  </outline>
</glyph>
<glyph name="C" format="2">
  <advance width="1390"/>
  <unicode hex="0043"/>
  <outline>
    <contour>
      <point x="665" y="-20" type="curve" smooth="yes"/>
      <point x="329" y="-20"/>
      <point x="105" y="184"/>
      <point x="105" y="510" type="curve" smooth="yes"/>
      <point x="105" y="1056"/>
      <point x="509" y="1520"/>
      <point x="995" y="1520" type="curve" smooth="yes"/>
      <point x="1251" y="1520"/>
      <point x="1410" y="1346"/>
      <point x="1420" y="1060" type="curve"/>
      <point x="1392" y="1060" type="line"/>
      <point x="1372" y="1354"/>
      <point x="1203" y="1480"/>
      <point x="1045" y="1480" type="curve" smooth="yes"/>
      <point x="647" y="1480"/>
      <point x="435" y="784"/>
      <point x="435" y="370" type="curve" smooth="yes"/>
      <point x="435" y="176"/>
      <point x="495" y="18"/>
      <point x="703" y="18" type="curve" smooth="yes"/>
      <point x="941" y="18"/>
      <point x="1131" y="218"/>
      <point x="1267" y="440" type="curve"/>
      <point x="1295" y="440" type="line"/>
      <point x="1175" y="194"/>
      <point x="951" y="-20"/>
    </contour>
    <contour>
      <point x="1392" y="1060" type="line"/>
      <point x="1390" y="1180" type="line"/>
      <point x="1385" y="1216"/>
      <point x="1329" y="1331"/>
      <point x="1312" y="1354" type="curve"/>
      <point x="1501" y="1500" type="line"/>
      <point x="1521" y="1500" type="line"/>
      <point x="1420" y="1060" type="line"/>
    </contour>
    <contour>
      <point x="1267" y="440" type="line"/>
      <point x="1295" y="440" type="line"/>
      <point x="1185" y="0" type="line"/>
      <point x="1165" y="0" type="line"/>
      <point x="1049" y="138" type="line"/>
      <point x="1072" y="159"/>
      <point x="1186" y="277"/>
      <point x="1210" y="316" type="curve"/>
    </contour>
  </outline>
</glyph>
<glyph name="D" format="2">
  <advance width="3102"/>
  <unicode hex="0044"/>
  <outline>
    <contour>
      <point x="912" y="3072" type="line"/>
      <point x="1546" y="3072" type="line"/>
      <point x="850" y="0" type="line"/>
      <point x="215" y="0" type="line"/>
    </contour>
    <contour>
      <point x="1260" y="0" type="curve" smooth="yes"/>
      <point x="-154" y="0" type="line"/>
      <point x="-154" y="57" type="line"/>
      <point x="1178" y="57" type="line" smooth="yes"/>
      <point x="1994" y="57"/>
      <point x="2408" y="1486"/>
      <point x="2408" y="2252" type="curve" smooth="yes"/>
      <point x="2408" y="2629"/>
      <point x="2300" y="3015"/>
      <point x="1854" y="3015" type="curve" smooth="yes"/>
      <point x="502" y="3015" type="line"/>
      <point x="502" y="3072" type="line"/>
      <point x="1914" y="3072" type="line" smooth="yes"/>
      <point x="2582" y="3072"/>
      <point x="3103" y="2717"/>
      <point x="3103" y="1987" type="curve" smooth="yes"/>
      <point x="3103" y="931"/>
      <point x="2316" y="0"/>
    </contour>
  </outline>
</glyph>
<glyph name="E" format="2">
  <advance width="1232"/>
  <unicode hex="0045"/>
  <outline>
    <contour>
      <point x="243" y="1500" type="line"/>
      <point x="1383" y="1500" type="line"/>
      <point x="1287" y="1090" type="line"/>
      <point x="1259" y="1090" type="line"/>
      <point x="1279" y="1304"/>
      <point x="1197" y="1472"/>
      <point x="963" y="1472" type="curve" smooth="yes"/>
      <point x="243" y="1472" type="line"/>
    </contour>
    <contour>
      <point x="423" y="1500" type="line"/>
      <point x="733" y="1500" type="line"/>
      <point x="385" y="0" type="line"/>
      <point x="75" y="0" type="line"/>
    </contour>
    <contour>
      <point x="641" y="762" type="curve" smooth="yes"/>
      <point x="509" y="762" type="line"/>
      <point x="509" y="790" type="line"/>
      <point x="641" y="790" type="line" smooth="yes"/>
      <point x="755" y="790"/>
      <point x="872" y="882"/>
      <point x="932" y="1016" type="curve"/>
      <point x="960" y="1016" type="line"/>
      <point x="847" y="526" type="line"/>
      <point x="819" y="526" type="line"/>
      <point x="819" y="660"/>
      <point x="755" y="762"/>
    </contour>
    <contour>
      <point x="1055" y="0" type="line"/>
      <point x="-95" y="0" type="line"/>
      <point x="-95" y="28" type="line"/>
      <point x="615" y="28" type="line" smooth="yes"/>
      <point x="889" y="28"/>
      <point x="1043" y="196"/>
      <point x="1131" y="450" type="curve"/>
      <point x="1159" y="450" type="line"/>
    </contour>
  </outline>
</glyph>
<glyph name="F" format="2">
  <advance width="2422"/>
  <unicode hex="0046"/>
  <outline>
    <contour>
      <point x="1235" y="1499" type="curve" smooth="yes"/>
      <point x="1050" y="1499" type="line"/>
      <point x="1050" y="1556" type="line"/>
      <point x="1235" y="1556" type="line" smooth="yes"/>
      <point x="1546" y="1556"/>
      <point x="1780" y="1745"/>
      <point x="1894" y="2019" type="curve"/>
      <point x="1952" y="2019" type="line"/>
      <point x="1720" y="1016" type="line"/>
      <point x="1663" y="1016" type="line"/>
      <point x="1663" y="1290"/>
      <point x="1550" y="1499"/>
    </contour>
    <contour>
      <point x="-194" y="57" type="line"/>
      <point x="1198" y="57" type="line"/>
      <point x="1198" y="0" type="line"/>
      <point x="-194" y="0" type="line"/>
    </contour>
    <contour>
      <point x="866" y="3072" type="line"/>
      <point x="1502" y="3072" type="line"/>
      <point x="788" y="0" type="line"/>
      <point x="154" y="0" type="line"/>
    </contour>
    <contour>
      <point x="498" y="3072" type="line"/>
      <point x="2771" y="3072" type="line"/>
      <point x="2574" y="2232" type="line"/>
      <point x="2517" y="2232" type="line"/>
      <point x="2558" y="2670"/>
      <point x="2411" y="3015"/>
      <point x="1932" y="3015" type="curve" smooth="yes"/>
      <point x="498" y="3015" type="line"/>
    </contour>
  </outline>
</glyph>
<glyph name="J" format="2">
  <advance width="1046"/>
  <unicode hex="004A"/>
  <outline>
    <contour>
      <point x="457" y="1500" type="line"/>
      <point x="1237" y="1500" type="line"/>
      <point x="1237" y="1472" type="line"/>
      <point x="457" y="1472" type="line"/>
    </contour>
    <contour>
      <point x="12" y="98" type="curve"/>
      <point x="32" y="41"/>
      <point x="106" y="-30"/>
      <point x="217" y="-30" type="curve" smooth="yes"/>
      <point x="339" y="-30"/>
      <point x="409" y="100"/>
      <point x="473" y="380" type="curve" smooth="yes"/>
      <point x="727" y="1500" type="line"/>
      <point x="1037" y="1500" type="line"/>
      <point x="775" y="338" type="line"/>
      <point x="645" y="148"/>
      <point x="489" y="-60"/>
      <point x="247" y="-60" type="curve" smooth="yes"/>
      <point x="53" y="-60"/>
      <point x="-65" y="70"/>
      <point x="-65" y="210" type="curve" smooth="yes"/>
      <point x="-65" y="314"/>
      <point x="9" y="400"/>
      <point x="119" y="400" type="curve" smooth="yes"/>
      <point x="209" y="400"/>
      <point x="291" y="334"/>
      <point x="291" y="222" type="curve" smooth="yes"/>
      <point x="291" y="113"/>
      <point x="204" y="46"/>
      <point x="109" y="46" type="curve" smooth="yes"/>
      <point x="71" y="46"/>
      <point x="28" y="68"/>
    </contour>
  </outline>
</glyph>
<glyph name="K" format="2">
  <advance width="1518"/>
  <unicode hex="004B"/>
  <outline>
    <contour>
      <point x="-85" y="28" type="line"/>
      <point x="565" y="28" type="line"/>
      <point x="565" y="0" type="line"/>
      <point x="-85" y="0" type="line"/>
    </contour>
    <contour>
      <point x="245" y="1500" type="line"/>
      <point x="915" y="1500" type="line"/>
      <point x="915" y="1472" type="line"/>
      <point x="245" y="1472" type="line"/>
    </contour>
    <contour>
      <point x="425" y="1500" type="line"/>
      <point x="735" y="1500" type="line"/>
      <point x="395" y="0" type="line"/>
      <point x="85" y="0" type="line"/>
    </contour>
    <contour>
      <point x="325" y="434" type="line"/>
      <point x="274" y="434" type="line"/>
      <point x="1413" y="1497" type="line"/>
      <point x="1460" y="1497" type="line"/>
    </contour>
    <contour>
      <point x="679" y="28" type="line"/>
      <point x="1395" y="28" type="line"/>
      <point x="1395" y="0" type="line"/>
      <point x="679" y="0" type="line"/>
    </contour>
    <contour>
      <point x="1639" y="1472" type="line"/>
      <point x="1159" y="1472" type="line"/>
      <point x="1159" y="1500" type="line"/>
      <point x="1639" y="1500" type="line"/>
    </contour>
    <contour>
      <point x="1235" y="0" type="line"/>
      <point x="887" y="0" type="line"/>
      <point x="632" y="757" type="line"/>
      <point x="886" y="978" type="line"/>
    </contour>
  </outline>
</glyph>
<glyph name="L" format="2">
  <advance width="1213"/>
  <unicode hex="004C"/>
  <outline>
    <contour>
      <point x="423" y="1500" type="line"/>
      <point x="733" y="1500" type="line"/>
      <point x="385" y="0" type="line"/>
      <point x="75" y="0" type="line"/>
    </contour>
    <contour>
      <point x="243" y="1500" type="line"/>
      <point x="913" y="1500" type="line"/>
      <point x="913" y="1472" type="line"/>
      <point x="243" y="1472" type="line"/>
    </contour>
    <contour>
      <point x="1050" y="0" type="line"/>
      <point x="-95" y="0" type="line"/>
      <point x="-95" y="28" type="line"/>
      <point x="590" y="28" type="line" smooth="yes"/>
      <point x="904" y="28"/>
      <point x="1038" y="196"/>
      <point x="1126" y="450" type="curve"/>
      <point x="1154" y="450" type="line"/>
    </contour>
  </outline>
</glyph>
<glyph name="M" format="2">
  <advance width="1784"/>
  <unicode hex="004D"/>
  <outline>
    <contour>
      <point x="1035" y="28" type="line"/>
      <point x="1645" y="28" type="line"/>
      <point x="1645" y="0" type="line"/>
      <point x="1035" y="0" type="line"/>
    </contour>
    <contour>
      <point x="1798" y="1472" type="line"/>
      <point x="1485" y="0" type="line"/>
      <point x="1175" y="0" type="line"/>
      <point x="1495" y="1500" type="line"/>
      <point x="1925" y="1500" type="line"/>
      <point x="1925" y="1472" type="line"/>
    </contour>
    <contour>
      <point x="887" y="429" type="line"/>
      <point x="1479" y="1500" type="line"/>
      <point x="1513" y="1500" type="line"/>
      <point x="672" y="-20" type="line"/>
      <point x="637" y="-20" type="line"/>
      <point x="401" y="1500" type="line"/>
      <point x="713" y="1500" type="line"/>
    </contour>
    <contour>
      <point x="391" y="1472" type="line"/>
      <point x="245" y="1472" type="line"/>
      <point x="245" y="1500" type="line"/>
      <point x="427" y="1500" type="line"/>
      <point x="107" y="0" type="line"/>
      <point x="77" y="0" type="line"/>
    </contour>
    <contour>
      <point x="-55" y="28" type="line"/>
      <point x="265" y="28" type="line"/>
      <point x="265" y="0" type="line"/>
      <point x="-55" y="0" type="line"/>
    </contour>
  </outline>
</glyph>
<glyph name="N" format="2">
  <advance width="1484"/>
  <unicode hex="004E"/>
  <outline>
    <contour>
      <point x="1448" y="1500" type="line"/>
      <point x="1478" y="1500" type="line"/>
      <point x="1132" y="-20" type="line"/>
      <point x="1081" y="-20" type="line"/>
      <point x="445" y="1500" type="line"/>
      <point x="815" y="1500" type="line"/>
      <point x="1224" y="516" type="line"/>
    </contour>
    <contour>
      <point x="1208" y="1500" type="line"/>
      <point x="1675" y="1500" type="line"/>
      <point x="1675" y="1472" type="line"/>
      <point x="1208" y="1472" type="line"/>
    </contour>
    <contour>
      <point x="-75" y="28" type="line"/>
      <point x="391" y="28" type="line"/>
      <point x="391" y="0" type="line"/>
      <point x="-75" y="0" type="line"/>
    </contour>
    <contour>
      <point x="447" y="1472" type="line"/>
      <point x="245" y="1472" type="line"/>
      <point x="245" y="1500" type="line"/>
      <point x="482" y="1500" type="line"/>
      <point x="145" y="0" type="line"/>
      <point x="115" y="0" type="line"/>
    </contour>
  </outline>
</glyph>
<glyph name="P" format="2">
  <advance width="2744"/>
  <unicode hex="0050"/>
  <outline>
    <contour>
      <point x="870" y="3072" type="line"/>
      <point x="1506" y="3072" type="line"/>
      <point x="788" y="0" type="line"/>
      <point x="154" y="0" type="line"/>
    </contour>
    <contour>
      <point x="-174" y="57" type="line"/>
      <point x="1198" y="57" type="line"/>
      <point x="1198" y="0" type="line"/>
      <point x="-174" y="0" type="line"/>
    </contour>
    <contour>
      <point x="1506" y="1364" type="curve" smooth="yes"/>
      <point x="1054" y="1364" type="line"/>
      <point x="1054" y="1421" type="line"/>
      <point x="1403" y="1421" type="line" smooth="yes"/>
      <point x="1919" y="1421"/>
      <point x="2175" y="2052"/>
      <point x="2175" y="2498" type="curve" smooth="yes"/>
      <point x="2175" y="2740"/>
      <point x="2102" y="3015"/>
      <point x="1812" y="3015" type="curve" smooth="yes"/>
      <point x="502" y="3015" type="line"/>
      <point x="502" y="3072" type="line"/>
      <point x="1914" y="3072" type="line" smooth="yes"/>
      <point x="2451" y="3072"/>
      <point x="2867" y="2888"/>
      <point x="2867" y="2396" type="curve" smooth="yes"/>
      <point x="2867" y="1782"/>
      <point x="2329" y="1364"/>
    </contour>
  </outline>
</glyph>
<glyph name="Q" format="2">
  <advance width="1474"/>
  <unicode hex="0051"/>
  <outline>
    <contour>
      <point x="955" y="-472" type="curve"/>
      <point x="955" y="-500" type="line"/>
      <point x="509" y="-500"/>
      <point x="365" y="-336"/>
      <point x="465" y="10" type="curve"/>
      <point x="578" y="-12"/>
      <point x="697" y="-11"/>
      <point x="815" y="10" type="curve"/>
      <point x="715" y="-354"/>
      <point x="796" y="-472"/>
    </contour>
    <contour>
      <point x="975" y="1496" type="curve" smooth="yes"/>
      <point x="667" y="1496"/>
      <point x="425" y="794"/>
      <point x="425" y="330" type="curve" smooth="yes"/>
      <point x="425" y="126"/>
      <point x="477" y="4"/>
      <point x="635" y="4" type="curve" smooth="yes"/>
      <point x="963" y="4"/>
      <point x="1185" y="706"/>
      <point x="1185" y="1170" type="curve" smooth="yes"/>
      <point x="1185" y="1334"/>
      <point x="1133" y="1496"/>
    </contour>
    <contour>
      <point x="635" y="-20" type="curve" smooth="yes"/>
      <point x="299" y="-20"/>
      <point x="105" y="184"/>
      <point x="105" y="510" type="curve" smooth="yes"/>
      <point x="105" y="1096"/>
      <point x="549" y="1520"/>
      <point x="975" y="1520" type="curve" smooth="yes"/>
      <point x="1291" y="1520"/>
      <point x="1505" y="1316"/>
      <point x="1505" y="990" type="curve" smooth="yes"/>
      <point x="1505" y="404"/>
      <point x="1081" y="-20"/>
    </contour>
  </outline>
</glyph>
<glyph name="R" format="2">
  <advance width="3143"/>
  <unicode hex="0052"/>
  <outline>
    <contour>
      <point x="2836" y="49" type="line"/>
      <point x="2689" y="-8"/>
      <point x="2554" y="-30"/>
      <point x="2366" y="-30" type="curve" smooth="yes"/>
      <point x="1228" y="-30"/>
      <point x="2452" y="1548"/>
      <point x="1444" y="1548" type="curve" smooth="yes"/>
      <point x="1116" y="1548" type="line"/>
      <point x="1116" y="1577" type="line"/>
      <point x="1628" y="1577" type="line" smooth="yes"/>
      <point x="3136" y="1577"/>
      <point x="2159" y="53"/>
      <point x="2622" y="53" type="curve" smooth="yes"/>
      <point x="2700" y="53"/>
      <point x="2758" y="77"/>
      <point x="2820" y="102" type="curve"/>
    </contour>
    <contour>
      <point x="952" y="3072" type="line"/>
      <point x="1588" y="3072" type="line"/>
      <point x="870" y="0" type="line"/>
      <point x="236" y="0" type="line"/>
    </contour>
    <contour>
      <point x="-154" y="57" type="line"/>
      <point x="1320" y="57" type="line"/>
      <point x="1320" y="0" type="line"/>
      <point x="-154" y="0" type="line"/>
    </contour>
    <contour>
      <point x="1628" y="1569" type="curve" smooth="yes"/>
      <point x="1116" y="1569" type="line"/>
      <point x="1116" y="1606" type="line"/>
      <point x="1526" y="1606" type="line" smooth="yes"/>
      <point x="2104" y="1606"/>
      <point x="2314" y="2195"/>
      <point x="2314" y="2560" type="curve" smooth="yes"/>
      <point x="2314" y="2761"/>
      <point x="2254" y="3015"/>
      <point x="1894" y="3015" type="curve" smooth="yes"/>
      <point x="522" y="3015" type="line"/>
      <point x="522" y="3072" type="line"/>
      <point x="2038" y="3072" type="line" smooth="yes"/>
      <point x="2575" y="3072"/>
      <point x="2980" y="2909"/>
      <point x="2980" y="2458" type="curve" smooth="yes"/>
      <point x="2980" y="1885"/>
      <point x="2451" y="1569"/>
    </contour>
  </outline>
</glyph>
<glyph name="S" format="2">
  <advance width="1186"/>
  <unicode hex="0053"/>
  <outline>
    <contour>
      <point x="1121" y="1189" type="line"/>
      <point x="1113" y="1223"/>
      <point x="1054" y="1358"/>
      <point x="1029" y="1391" type="curve"/>
      <point x="1237" y="1520" type="line"/>
      <point x="1257" y="1520" type="line"/>
      <point x="1155" y="1070" type="line"/>
      <point x="1127" y="1070" type="line"/>
    </contour>
    <contour>
      <point x="1155" y="1070" type="curve"/>
      <point x="1127" y="1070" type="line"/>
      <point x="1097" y="1303"/>
      <point x="981" y="1487"/>
      <point x="761" y="1487" type="curve" smooth="yes"/>
      <point x="619" y="1487"/>
      <point x="471" y="1393"/>
      <point x="471" y="1248" type="curve" smooth="yes"/>
      <point x="471" y="920"/>
      <point x="1096" y="1010"/>
      <point x="1096" y="500" type="curve" smooth="yes"/>
      <point x="1096" y="220"/>
      <point x="833" y="-30"/>
      <point x="511" y="-30" type="curve" smooth="yes"/>
      <point x="199" y="-30"/>
      <point x="95" y="210"/>
      <point x="61" y="450" type="curve"/>
      <point x="89" y="450" type="line"/>
      <point x="119" y="243"/>
      <point x="221" y="2"/>
      <point x="495" y="2" type="curve" smooth="yes"/>
      <point x="697" y="2"/>
      <point x="841" y="120"/>
      <point x="841" y="292" type="curve" smooth="yes"/>
      <point x="841" y="680"/>
      <point x="221" y="560"/>
      <point x="221" y="1030" type="curve" smooth="yes"/>
      <point x="221" y="1350"/>
      <point x="523" y="1520"/>
      <point x="745" y="1520" type="curve" smooth="yes"/>
      <point x="1001" y="1520"/>
      <point x="1125" y="1332"/>
    </contour>
    <contour>
      <point x="-25" y="-20" type="line"/>
      <point x="-45" y="-20" type="line"/>
      <point x="61" y="450" type="line"/>
      <point x="89" y="450" type="line"/>
      <point x="108" y="303" type="line"/>
      <point x="117" y="266"/>
      <point x="174" y="145"/>
      <point x="193" y="121" type="curve"/>
    </contour>
  </outline>
</glyph>
<glyph name="T" format="2">
  <advance width="1343"/>
  <unicode hex="0054"/>
  <outline>
    <contour>
      <point x="192" y="28" type="line"/>
      <point x="942" y="28" type="line"/>
      <point x="942" y="0" type="line"/>
      <point x="192" y="0" type="line"/>
    </contour>
    <contour>
      <point x="744" y="1500" type="line"/>
      <point x="1054" y="1500" type="line"/>
      <point x="706" y="0" type="line"/>
      <point x="396" y="0" type="line"/>
    </contour>
    <contour>
      <point x="1174" y="1472" type="curve" smooth="yes"/>
      <point x="604" y="1472" type="line" smooth="yes"/>
      <point x="390" y="1472"/>
      <point x="261" y="1272"/>
      <point x="173" y="1020" type="curve"/>
      <point x="145" y="1020" type="line"/>
      <point x="254" y="1500" type="line"/>
      <point x="1544" y="1500" type="line"/>
      <point x="1435" y="1020" type="line"/>
      <point x="1407" y="1020" type="line"/>
      <point x="1435" y="1274"/>
      <point x="1388" y="1472"/>
    </contour>
  </outline>
</glyph>
<glyph name="U" format="2">
  <advance width="1420"/>
  <unicode hex="0055"/>
  <outline>
    <contour>
      <point x="1221" y="1500" type="line"/>
      <point x="1611" y="1500" type="line"/>
      <point x="1611" y="1472" type="line"/>
      <point x="1221" y="1472" type="line"/>
    </contour>
    <contour>
      <point x="241" y="1500" type="line"/>
      <point x="931" y="1500" type="line"/>
      <point x="931" y="1472" type="line"/>
      <point x="241" y="1472" type="line"/>
    </contour>
    <contour>
      <point x="1417" y="1500" type="line"/>
      <point x="1445" y="1500" type="line"/>
      <point x="1205" y="460" type="line" smooth="yes"/>
      <point x="1133" y="146"/>
      <point x="957" y="-30"/>
      <point x="641" y="-30" type="curve" smooth="yes"/>
      <point x="315" y="-30"/>
      <point x="115" y="132"/>
      <point x="191" y="460" type="curve" smooth="yes"/>
      <point x="431" y="1500" type="line"/>
      <point x="741" y="1500" type="line"/>
      <point x="501" y="480" type="line" smooth="yes"/>
      <point x="443" y="230"/>
      <point x="467" y="16"/>
      <point x="715" y="16" type="curve" smooth="yes"/>
      <point x="934" y="16"/>
      <point x="1109" y="166"/>
      <point x="1177" y="460" type="curve" smooth="yes"/>
    </contour>
  </outline>
</glyph>
<glyph name="V" format="2">
  <advance width="1534"/>
  <unicode hex="0056"/>
  <outline>
    <contour>
      <point x="1735" y="1472" type="line"/>
      <point x="1295" y="1472" type="line"/>
      <point x="1295" y="1500" type="line"/>
      <point x="1735" y="1500" type="line"/>
    </contour>
    <contour>
      <point x="935" y="1472" type="line"/>
      <point x="235" y="1472" type="line"/>
      <point x="235" y="1500" type="line"/>
      <point x="935" y="1500" type="line"/>
    </contour>
    <contour>
      <point x="830" y="271" type="line"/>
      <point x="1538" y="1500" type="line"/>
      <point x="1572" y="1500" type="line"/>
      <point x="693" y="-25" type="line"/>
      <point x="565" y="-25" type="line"/>
      <point x="375" y="1500" type="line"/>
      <point x="705" y="1500" type="line"/>
    </contour>
  </outline>
</glyph>
<glyph name="W" format="2">
  <advance width="2190"/>
  <unicode hex="0057"/>
  <outline>
    <contour>
      <point x="888" y="339" type="line"/>
      <point x="1215" y="894" type="line"/>
      <point x="1247" y="894" type="line"/>
      <point x="711" y="-20" type="line"/>
      <point x="596" y="-20" type="line"/>
      <point x="399" y="1500" type="line"/>
      <point x="746" y="1500" type="line"/>
    </contour>
    <contour>
      <point x="1356" y="834" type="line"/>
      <point x="1324" y="834" type="line"/>
      <point x="1719" y="1500" type="line"/>
      <point x="1751" y="1500" type="line"/>
    </contour>
    <contour>
      <point x="2391" y="1472" type="line"/>
      <point x="2001" y="1472" type="line"/>
      <point x="2001" y="1500" type="line"/>
      <point x="2391" y="1500" type="line"/>
    </contour>
    <contour>
      <point x="1915" y="1472" type="line"/>
      <point x="235" y="1472" type="line"/>
      <point x="235" y="1500" type="line"/>
      <point x="1915" y="1500" type="line"/>
    </contour>
    <contour>
      <point x="1502" y="338" type="line"/>
      <point x="2192" y="1500" type="line"/>
      <point x="2224" y="1500" type="line"/>
      <point x="1323" y="-20" type="line"/>
      <point x="1238" y="-20" type="line"/>
      <point x="1041" y="1500" type="line"/>
      <point x="1356" y="1500" type="line"/>
    </contour>
  </outline>
</glyph>
<glyph name="X" format="2">
  <advance width="1554"/>
  <unicode hex="0058"/>
  <outline>
    <contour>
      <point x="856" y="754" type="line"/>
      <point x="811" y="754" type="line"/>
      <point x="1453" y="1496" type="line"/>
      <point x="1491" y="1496" type="line"/>
    </contour>
    <contour>
      <point x="120" y="0" type="line"/>
      <point x="78" y="0" type="line"/>
      <point x="820" y="834" type="line"/>
      <point x="860" y="834" type="line"/>
    </contour>
    <contour>
      <point x="755" y="28" type="line"/>
      <point x="1435" y="28" type="line"/>
      <point x="1435" y="0" type="line"/>
      <point x="755" y="0" type="line"/>
    </contour>
    <contour>
      <point x="-105" y="28" type="line"/>
      <point x="375" y="28" type="line"/>
      <point x="375" y="0" type="line"/>
      <point x="-105" y="0" type="line"/>
    </contour>
    <contour>
      <point x="985" y="1472" type="line"/>
      <point x="305" y="1472" type="line"/>
      <point x="305" y="1500" type="line"/>
      <point x="985" y="1500" type="line"/>
    </contour>
    <contour>
      <point x="1675" y="1472" type="line"/>
      <point x="1235" y="1472" type="line"/>
      <point x="1235" y="1500" type="line"/>
      <point x="1675" y="1500" type="line"/>
    </contour>
    <contour>
      <point x="1297" y="0" type="line"/>
      <point x="947" y="0" type="line"/>
      <point x="445" y="1500" type="line"/>
      <point x="787" y="1500" type="line"/>
    </contour>
  </outline>
</glyph>
<glyph name="Y" format="2">
  <advance width="3081"/>
  <unicode hex="0059"/>
  <outline>
    <contour>
      <point x="3492" y="3015" type="line"/>
      <point x="2632" y="3015" type="line"/>
      <point x="2632" y="3072" type="line"/>
      <point x="3492" y="3072" type="line"/>
    </contour>
    <contour>
      <point x="1921" y="3015" type="line"/>
      <point x="482" y="3015" type="line"/>
      <point x="482" y="3072" type="line"/>
      <point x="1921" y="3072" type="line"/>
    </contour>
    <contour>
      <point x="624" y="57" type="line"/>
      <point x="2038" y="57" type="line"/>
      <point x="2038" y="0" type="line"/>
      <point x="624" y="0" type="line"/>
    </contour>
    <contour>
      <point x="1976" y="1646" type="line"/>
      <point x="3092" y="3064" type="line"/>
      <point x="3174" y="3064" type="line"/>
      <point x="1972" y="1542" type="line"/>
      <point x="1628" y="0" type="line"/>
      <point x="993" y="0" type="line"/>
      <point x="1342" y="1544" type="line"/>
      <point x="768" y="3072" type="line"/>
      <point x="1491" y="3072" type="line"/>
    </contour>
  </outline>
</glyph>
<glyph name="Z" format="2">
  <advance width="2483"/>
  <unicode hex="005A"/>
  <outline>
    <contour>
      <point x="1962" y="3015" type="line"/>
      <point x="1398" y="3015" type="line" smooth="yes"/>
      <point x="837" y="3015"/>
      <point x="622" y="2752"/>
      <point x="438" y="2314" type="curve"/>
      <point x="381" y="2314" type="line"/>
      <point x="559" y="3072" type="line"/>
      <point x="2750" y="3072" type="line"/>
      <point x="2750" y="3015" type="line"/>
      <point x="574" y="57" type="line"/>
      <point x="1260" y="57" type="line" smooth="yes"/>
      <point x="1821" y="57"/>
      <point x="2014" y="324"/>
      <point x="2236" y="840" type="curve"/>
      <point x="2294" y="840" type="line"/>
      <point x="2100" y="0" type="line"/>
      <point x="-215" y="0" type="line"/>
      <point x="-215" y="57" type="line"/>
    </contour>
  </outline>
</glyph>
<glyph name="bracketleft" format="2">
  <advance width="739"/>
  <unicode hex="005B"/>
  <outline>
    <contour>
      <point x="400" y="1560" type="line"/>
      <point x="950" y="1560" type="line"/>
      <point x="950" y="1532" type="line"/>
      <point x="672" y="1532" type="line"/>
      <point x="268" y="-272" type="line"/>
      <point x="530" y="-272" type="line"/>
      <point x="530" y="-300" type="line"/>
      <point x="-20" y="-300" type="line"/>
    </contour>
  </outline>
</glyph>
<glyph name="a" format="2">
  <advance width="2645"/>
  <unicode hex="0061"/>
  <outline>
    <contour>
      <point x="1550" y="1286" type="curve" smooth="yes"/>
      <point x="1550" y="1544"/>
      <point x="1462" y="1736"/>
      <point x="1319" y="1736" type="curve" smooth="yes"/>
      <point x="1037" y="1736"/>
      <point x="704" y="1073"/>
      <point x="704" y="524" type="curve" smooth="yes"/>
      <point x="704" y="286"/>
      <point x="782" y="131"/>
      <point x="930" y="131" type="curve" smooth="yes"/>
      <point x="1272" y="131"/>
      <point x="1550" y="852"/>
    </contour>
    <contour>
      <point x="1595" y="1286" type="curve" smooth="yes"/>
      <point x="1595" y="844"/>
      <point x="1303" y="-41"/>
      <point x="725" y="-41" type="curve" smooth="yes"/>
      <point x="442" y="-41"/>
      <point x="74" y="123"/>
      <point x="74" y="655" type="curve" smooth="yes"/>
      <point x="74" y="1474"/>
      <point x="716" y="1923"/>
      <point x="1142" y="1923" type="curve" smooth="yes"/>
      <point x="1453" y="1923"/>
      <point x="1595" y="1663"/>
    </contour>
    <contour>
      <point x="2552" y="668" type="line"/>
      <point x="2396" y="258"/>
      <point x="2114" y="-41"/>
      <point x="1720" y="-41" type="curve" smooth="yes"/>
      <point x="1466" y="-41"/>
      <point x="1374" y="71"/>
      <point x="1374" y="278" type="curve" smooth="yes"/>
      <point x="1374" y="298"/>
      <point x="1378" y="350"/>
      <point x="1384" y="377" type="curve" smooth="yes"/>
      <point x="1468" y="743" type="line"/>
      <point x="1558" y="1052" type="line"/>
      <point x="1583" y="1282" type="line"/>
      <point x="1738" y="1884" type="line"/>
      <point x="2298" y="1884" type="line"/>
      <point x="1876" y="242" type="line" smooth="yes"/>
      <point x="1872" y="217"/>
      <point x="1868" y="188"/>
      <point x="1868" y="168" type="curve" smooth="yes"/>
      <point x="1868" y="123"/>
      <point x="1889" y="88"/>
      <point x="1942" y="88" type="curve" smooth="yes"/>
      <point x="2155" y="88"/>
      <point x="2392" y="387"/>
      <point x="2498" y="684" type="curve"/>
    </contour>
  </outline>
</glyph>
<glyph name="b" format="2">
  <advance width="1227"/>
  <unicode hex="0062"/>
  <outline>
    <contour>
      <point x="418" y="1472" type="line"/>
      <point x="268" y="1472" type="line"/>
      <point x="268" y="1500" type="line"/>
      <point x="704" y="1500" type="line"/>
      <point x="412" y="230" type="line"/>
      <point x="412" y="112"/>
      <point x="441" y="10"/>
      <point x="523" y="10" type="curve" smooth="yes"/>
      <point x="681" y="10"/>
      <point x="854" y="400"/>
      <point x="854" y="668" type="curve" smooth="yes"/>
      <point x="854" y="776"/>
      <point x="816" y="854"/>
      <point x="744" y="854" type="curve" smooth="yes"/>
      <point x="637" y="854"/>
      <point x="518" y="692"/>
      <point x="464" y="460" type="curve"/>
      <point x="450" y="460" type="line"/>
      <point x="525" y="804"/>
      <point x="686" y="938"/>
      <point x="848" y="938" type="curve" smooth="yes"/>
      <point x="982" y="938"/>
      <point x="1162" y="876"/>
      <point x="1162" y="620" type="curve" smooth="yes"/>
      <point x="1162" y="200"/>
      <point x="846" y="-20"/>
      <point x="518" y="-20" type="curve" smooth="yes"/>
      <point x="356" y="-20"/>
      <point x="226" y="74"/>
      <point x="136" y="240" type="curve"/>
    </contour>
  </outline>
</glyph>
<glyph name="c" format="2">
  <advance width="999"/>
  <unicode hex="0063"/>
  <outline>
    <contour>
      <point x="898" y="777" type="curve"/>
      <point x="872" y="846"/>
      <point x="797" y="908"/>
      <point x="690" y="908" type="curve" smooth="yes"/>
      <point x="462" y="908"/>
      <point x="344" y="518"/>
      <point x="344" y="270" type="curve" smooth="yes"/>
      <point x="344" y="102"/>
      <point x="383" y="34"/>
      <point x="471" y="34" type="curve" smooth="yes"/>
      <point x="579" y="34"/>
      <point x="717" y="110"/>
      <point x="828" y="286" type="curve"/>
      <point x="854" y="286" type="line"/>
      <point x="742" y="92"/>
      <point x="576" y="-20"/>
      <point x="374" y="-20" type="curve" smooth="yes"/>
      <point x="212" y="-20"/>
      <point x="36" y="60"/>
      <point x="36" y="310" type="curve" smooth="yes"/>
      <point x="36" y="690"/>
      <point x="340" y="940"/>
      <point x="642" y="940" type="curve" smooth="yes"/>
      <point x="826" y="940"/>
      <point x="964" y="841"/>
      <point x="964" y="687" type="curve" smooth="yes"/>
      <point x="964" y="575"/>
      <point x="890" y="508"/>
      <point x="800" y="508" type="curve" smooth="yes"/>
      <point x="720" y="508"/>
      <point x="636" y="560"/>
      <point x="636" y="660" type="curve" smooth="yes"/>
      <point x="636" y="760"/>
      <point x="725" y="816"/>
      <point x="793" y="816" type="curve" smooth="yes"/>
      <point x="851" y="816"/>
      <point x="885" y="795"/>
    </contour>
  </outline>
</glyph>
<glyph name="d" format="2">
  <advance width="1311"/>
  <unicode hex="0064"/>
  <outline>
    <contour>
      <point x="1269" y="326" type="line"/>
      <point x="1193" y="126"/>
      <point x="1055" y="-20"/>
      <point x="863" y="-20" type="curve" smooth="yes"/>
      <point x="739" y="-20"/>
      <point x="675" y="26"/>
      <point x="675" y="146" type="curve" smooth="yes"/>
      <point x="675" y="156"/>
      <point x="678" y="178"/>
      <point x="680" y="190" type="curve" smooth="yes"/>
      <point x="717" y="364" type="line"/>
      <point x="761" y="517" type="line"/>
      <point x="773" y="624" type="line"/>
      <point x="967" y="1472" type="line"/>
      <point x="785" y="1472" type="line"/>
      <point x="785" y="1500" type="line"/>
      <point x="1251" y="1500" type="line"/>
      <point x="940" y="118" type="line" smooth="yes"/>
      <point x="938" y="106"/>
      <point x="936" y="92"/>
      <point x="936" y="82" type="curve" smooth="yes"/>
      <point x="936" y="60"/>
      <point x="945" y="42"/>
      <point x="972" y="42" type="curve" smooth="yes"/>
      <point x="1074" y="42"/>
      <point x="1191" y="188"/>
      <point x="1243" y="334" type="curve"/>
    </contour>
    <contour>
      <point x="757" y="628" type="curve" smooth="yes"/>
      <point x="757" y="754"/>
      <point x="714" y="848"/>
      <point x="644" y="848" type="curve" smooth="yes"/>
      <point x="506" y="848"/>
      <point x="344" y="524"/>
      <point x="344" y="256" type="curve" smooth="yes"/>
      <point x="344" y="140"/>
      <point x="382" y="64"/>
      <point x="454" y="64" type="curve" smooth="yes"/>
      <point x="621" y="64"/>
      <point x="757" y="416"/>
    </contour>
    <contour>
      <point x="779" y="628" type="curve" smooth="yes"/>
      <point x="779" y="412"/>
      <point x="636" y="-20"/>
      <point x="354" y="-20" type="curve" smooth="yes"/>
      <point x="216" y="-20"/>
      <point x="36" y="60"/>
      <point x="36" y="320" type="curve" smooth="yes"/>
      <point x="36" y="720"/>
      <point x="350" y="940"/>
      <point x="552" y="940" type="curve" smooth="yes"/>
      <point x="704" y="940"/>
      <point x="779" y="812"/>
    </contour>
  </outline>
</glyph>
<glyph name="e" format="2">
  <advance width="1029"/>
  <unicode hex="0065"/>
  <outline>
    <contour>
      <point x="344" y="231" type="curve" smooth="yes"/>
      <point x="344" y="113"/>
      <point x="383" y="27"/>
      <point x="481" y="27" type="curve" smooth="yes"/>
      <point x="625" y="27"/>
      <point x="781" y="142"/>
      <point x="868" y="286" type="curve"/>
      <point x="894" y="286" type="line"/>
      <point x="806" y="132"/>
      <point x="626" y="-20"/>
      <point x="404" y="-20" type="curve" smooth="yes"/>
      <point x="212" y="-20"/>
      <point x="36" y="70"/>
      <point x="36" y="310" type="curve" smooth="yes"/>
      <point x="36" y="686"/>
      <point x="356" y="940"/>
      <point x="648" y="940" type="curve" smooth="yes"/>
      <point x="842" y="940"/>
      <point x="994" y="878"/>
      <point x="994" y="734" type="curve" smooth="yes"/>
      <point x="994" y="447"/>
      <point x="538" y="414"/>
      <point x="316" y="414" type="curve"/>
      <point x="316" y="438" type="line"/>
      <point x="464" y="438"/>
      <point x="732" y="496"/>
      <point x="732" y="768" type="curve" smooth="yes"/>
      <point x="732" y="842"/>
      <point x="718" y="916"/>
      <point x="662" y="916" type="curve" smooth="yes"/>
      <point x="524" y="916"/>
      <point x="344" y="539"/>
    </contour>
  </outline>
</glyph>
<glyph name="f" format="2">
  <advance width="841"/>
  <unicode hex="0066"/>
  <outline>
    <contour>
      <point x="144" y="920" type="line"/>
      <point x="874" y="920" type="line"/>
      <point x="874" y="892" type="line"/>
      <point x="144" y="892" type="line"/>
    </contour>
    <contour>
      <point x="1076" y="1396" type="curve"/>
      <point x="1054" y="1437"/>
      <point x="990" y="1490"/>
      <point x="889" y="1490" type="curve" smooth="yes"/>
      <point x="749" y="1490"/>
      <point x="657" y="1324"/>
      <point x="614" y="1080" type="curve" smooth="yes"/>
      <point x="417" y="-24" type="line" smooth="yes"/>
      <point x="360" y="-343"/>
      <point x="144" y="-520"/>
      <point x="-116" y="-520" type="curve" smooth="yes"/>
      <point x="-308" y="-520"/>
      <point x="-406" y="-396"/>
      <point x="-406" y="-292" type="curve" smooth="yes"/>
      <point x="-406" y="-190"/>
      <point x="-343" y="-128"/>
      <point x="-253" y="-128" type="curve" smooth="yes"/>
      <point x="-173" y="-128"/>
      <point x="-90" y="-176"/>
      <point x="-90" y="-276" type="curve" smooth="yes"/>
      <point x="-90" y="-376"/>
      <point x="-166" y="-431"/>
      <point x="-248" y="-431" type="curve" smooth="yes"/>
      <point x="-284" y="-431"/>
      <point x="-315" y="-414"/>
      <point x="-324" y="-396" type="curve"/>
      <point x="-304" y="-437"/>
      <point x="-240" y="-490"/>
      <point x="-139" y="-490" type="curve" smooth="yes"/>
      <point x="1" y="-490"/>
      <point x="94" y="-324"/>
      <point x="136" y="-80" type="curve" smooth="yes"/>
      <point x="330" y="1024" type="line" smooth="yes"/>
      <point x="386" y="1344"/>
      <point x="606" y="1520"/>
      <point x="866" y="1520" type="curve" smooth="yes"/>
      <point x="1058" y="1520"/>
      <point x="1156" y="1396"/>
      <point x="1156" y="1292" type="curve" smooth="yes"/>
      <point x="1156" y="1190"/>
      <point x="1093" y="1128"/>
      <point x="1003" y="1128" type="curve" smooth="yes"/>
      <point x="923" y="1128"/>
      <point x="840" y="1176"/>
      <point x="840" y="1276" type="curve" smooth="yes"/>
      <point x="840" y="1376"/>
      <point x="916" y="1431"/>
      <point x="998" y="1431" type="curve" smooth="yes"/>
      <point x="1034" y="1431"/>
      <point x="1067" y="1413"/>
    </contour>
  </outline>
</glyph>
<glyph name="g" format="2">
  <advance width="1273"/>
  <unicode hex="0067"/>
  <outline>
    <contour>
      <point x="294" y="-43" type="line"/>
      <point x="224" y="-69"/>
      <point x="159" y="-164"/>
      <point x="159" y="-278" type="curve" smooth="yes"/>
      <point x="159" y="-410"/>
      <point x="232" y="-490"/>
      <point x="404" y="-490" type="curve" smooth="yes"/>
      <point x="582" y="-490"/>
      <point x="814" y="-409"/>
      <point x="814" y="-214" type="curve" smooth="yes"/>
      <point x="814" y="-106"/>
      <point x="750" y="-68"/>
      <point x="640" y="-68" type="curve" smooth="yes"/>
      <point x="598" y="-68"/>
      <point x="445" y="-68"/>
      <point x="401" y="-68" type="curve" smooth="yes"/>
      <point x="221" y="-68"/>
      <point x="75" y="-16"/>
      <point x="75" y="108" type="curve" smooth="yes"/>
      <point x="75" y="279"/>
      <point x="319" y="344"/>
      <point x="511" y="344" type="curve"/>
      <point x="508" y="330" type="line"/>
      <point x="442" y="330"/>
      <point x="266" y="304"/>
      <point x="266" y="223" type="curve" smooth="yes"/>
      <point x="266" y="179"/>
      <point x="353" y="168"/>
      <point x="463" y="168" type="curve" smooth="yes"/>
      <point x="533" y="168"/>
      <point x="619" y="170"/>
      <point x="675" y="170" type="curve" smooth="yes"/>
      <point x="855" y="170"/>
      <point x="946" y="88"/>
      <point x="946" y="-84" type="curve" smooth="yes"/>
      <point x="946" y="-366"/>
      <point x="659" y="-520"/>
      <point x="389" y="-520" type="curve" smooth="yes"/>
      <point x="153" y="-520"/>
      <point x="-84" y="-463"/>
      <point x="-84" y="-297" type="curve" smooth="yes"/>
      <point x="-84" y="-105"/>
      <point x="187" y="-43"/>
      <point x="277" y="-43" type="curve" smooth="yes"/>
    </contour>
    <contour>
      <point x="1308" y="766" type="curve" smooth="yes"/>
      <point x="1308" y="656"/>
      <point x="1241" y="618"/>
      <point x="1181" y="618" type="curve" smooth="yes"/>
      <point x="1121" y="618"/>
      <point x="1056" y="657"/>
      <point x="1056" y="743" type="curve" smooth="yes"/>
      <point x="1056" y="809"/>
      <point x="1107" y="862"/>
      <point x="1178" y="862" type="curve" smooth="yes"/>
      <point x="1219" y="862"/>
      <point x="1258" y="836"/>
      <point x="1265" y="818" type="curve"/>
      <point x="1249" y="876"/>
      <point x="1196" y="902"/>
      <point x="1135" y="902" type="curve" smooth="yes"/>
      <point x="1047" y="902"/>
      <point x="944" y="843"/>
      <point x="854" y="678" type="curve"/>
      <point x="830" y="694" type="line"/>
      <point x="920" y="866"/>
      <point x="1045" y="930"/>
      <point x="1135" y="930" type="curve" smooth="yes"/>
      <point x="1253" y="930"/>
      <point x="1308" y="849"/>
    </contour>
    <contour>
      <point x="492" y="348" type="curve" smooth="yes"/>
      <point x="610" y="348"/>
      <point x="700" y="612"/>
      <point x="700" y="780" type="curve" smooth="yes"/>
      <point x="700" y="848"/>
      <point x="680" y="912"/>
      <point x="622" y="912" type="curve" smooth="yes"/>
      <point x="504" y="912"/>
      <point x="414" y="648"/>
      <point x="414" y="480" type="curve" smooth="yes"/>
      <point x="414" y="412"/>
      <point x="434" y="348"/>
    </contour>
    <contour>
      <point x="487" y="320" type="curve" smooth="yes"/>
      <point x="295" y="320"/>
      <point x="141" y="390"/>
      <point x="141" y="570" type="curve" smooth="yes"/>
      <point x="141" y="790"/>
      <point x="375" y="940"/>
      <point x="627" y="940" type="curve" smooth="yes"/>
      <point x="819" y="940"/>
      <point x="973" y="870"/>
      <point x="973" y="690" type="curve" smooth="yes"/>
      <point x="973" y="470"/>
      <point x="739" y="320"/>
    </contour>
  </outline>
</glyph>
<glyph name="h" format="2">
  <advance width="1251"/>
  <unicode hex="0068"/>
  <outline>
    <contour>
      <point x="760" y="613" type="line" smooth="yes"/>
      <point x="812" y="766"/>
      <point x="819" y="887"/>
      <point x="747" y="887" type="curve" smooth="yes"/>
      <point x="635" y="887"/>
      <point x="474" y="652"/>
      <point x="401" y="346" type="curve"/>
      <point x="381" y="346" type="line"/>
      <point x="463" y="652"/>
      <point x="586" y="940"/>
      <point x="822" y="940" type="curve" smooth="yes"/>
      <point x="1026" y="940"/>
      <point x="1110" y="803"/>
      <point x="1048" y="616" type="curve" smooth="yes"/>
      <point x="878" y="104" type="line" smooth="yes"/>
      <point x="874" y="92"/>
      <point x="872" y="78"/>
      <point x="872" y="68" type="curve" smooth="yes"/>
      <point x="872" y="46"/>
      <point x="884" y="31"/>
      <point x="910" y="31" type="curve" smooth="yes"/>
      <point x="1017" y="31"/>
      <point x="1125" y="181"/>
      <point x="1180" y="334" type="curve"/>
      <point x="1206" y="326" type="line"/>
      <point x="1130" y="126"/>
      <point x="1012" y="-20"/>
      <point x="820" y="-20" type="curve" smooth="yes"/>
      <point x="686" y="-20"/>
      <point x="614" y="36"/>
      <point x="614" y="142" type="curve" smooth="yes"/>
      <point x="614" y="172"/>
      <point x="619" y="196"/>
      <point x="624" y="214" type="curve" smooth="yes"/>
    </contour>
    <contour>
      <point x="385" y="1472" type="line"/>
      <point x="251" y="1472" type="line"/>
      <point x="251" y="1500" type="line"/>
      <point x="671" y="1500" type="line"/>
      <point x="321" y="0" type="line"/>
      <point x="41" y="0" type="line"/>
    </contour>
  </outline>
</glyph>
<glyph name="i" format="2">
  <advance width="763"/>
  <unicode hex="0069"/>
  <outline>
    <contour>
      <point x="303" y="1350" type="curve" smooth="yes"/>
      <point x="303" y="1446"/>
      <point x="377" y="1520"/>
      <point x="473" y="1520" type="curve" smooth="yes"/>
      <point x="569" y="1520"/>
      <point x="643" y="1446"/>
      <point x="643" y="1350" type="curve" smooth="yes"/>
      <point x="643" y="1254"/>
      <point x="569" y="1180"/>
      <point x="473" y="1180" type="curve" smooth="yes"/>
      <point x="377" y="1180"/>
      <point x="303" y="1254"/>
    </contour>
    <contour>
      <point x="699" y="326" type="line"/>
      <point x="623" y="126"/>
      <point x="485" y="-20"/>
      <point x="293" y="-20" type="curve" smooth="yes"/>
      <point x="169" y="-20"/>
      <point x="106" y="26"/>
      <point x="106" y="146" type="curve" smooth="yes"/>
      <point x="106" y="156"/>
      <point x="107" y="178"/>
      <point x="110" y="190" type="curve" smooth="yes"/>
      <point x="279" y="892" type="line"/>
      <point x="131" y="892" type="line"/>
      <point x="131" y="920" type="line"/>
      <point x="565" y="920" type="line"/>
      <point x="370" y="118" type="line" smooth="yes"/>
      <point x="368" y="106"/>
      <point x="366" y="92"/>
      <point x="366" y="82" type="curve" smooth="yes"/>
      <point x="366" y="60"/>
      <point x="376" y="42"/>
      <point x="402" y="42" type="curve" smooth="yes"/>
      <point x="502" y="42"/>
      <point x="618" y="182"/>
      <point x="673" y="334" type="curve"/>
    </contour>
  </outline>
</glyph>
<glyph name="j" format="2">
  <advance width="610"/>
  <unicode hex="006A"/>
  <outline>
    <contour>
      <point x="315" y="1350" type="curve" smooth="yes"/>
      <point x="315" y="1446"/>
      <point x="389" y="1520"/>
      <point x="485" y="1520" type="curve" smooth="yes"/>
      <point x="581" y="1520"/>
      <point x="655" y="1446"/>
      <point x="655" y="1350" type="curve" smooth="yes"/>
      <point x="655" y="1254"/>
      <point x="581" y="1180"/>
      <point x="485" y="1180" type="curve" smooth="yes"/>
      <point x="389" y="1180"/>
      <point x="315" y="1254"/>
    </contour>
    <contour>
      <point x="-318" y="-387" type="curve"/>
      <point x="-294" y="-439"/>
      <point x="-223" y="-489"/>
      <point x="-138" y="-489" type="curve" smooth="yes"/>
      <point x="52" y="-489"/>
      <point x="40" y="-200"/>
      <point x="96" y="40" type="curve" smooth="yes"/>
      <point x="296" y="892" type="line"/>
      <point x="112" y="892" type="line"/>
      <point x="112" y="920" type="line"/>
      <point x="577" y="920" type="line"/>
      <point x="381" y="-24" type="line" smooth="yes"/>
      <point x="329" y="-274"/>
      <point x="132" y="-520"/>
      <point x="-128" y="-520" type="curve" smooth="yes"/>
      <point x="-290" y="-520"/>
      <point x="-404" y="-396"/>
      <point x="-404" y="-292" type="curve" smooth="yes"/>
      <point x="-404" y="-190"/>
      <point x="-320" y="-118"/>
      <point x="-230" y="-118" type="curve" smooth="yes"/>
      <point x="-150" y="-118"/>
      <point x="-78" y="-176"/>
      <point x="-78" y="-260" type="curve" smooth="yes"/>
      <point x="-78" y="-354"/>
      <point x="-156" y="-419"/>
      <point x="-246" y="-419" type="curve" smooth="yes"/>
      <point x="-275" y="-419"/>
      <point x="-302" y="-405"/>
    </contour>
  </outline>
</glyph>
<glyph name="k" format="2">
  <advance width="1240"/>
  <unicode hex="006B"/>
  <outline>
    <contour>
      <point x="1190" y="326" type="line"/>
      <point x="1114" y="126"/>
      <point x="986" y="-20"/>
      <point x="804" y="-20" type="curve" smooth="yes"/>
      <point x="680" y="-20"/>
      <point x="603" y="26"/>
      <point x="603" y="146" type="curve" smooth="yes"/>
      <point x="603" y="156"/>
      <point x="605" y="178"/>
      <point x="607" y="190" type="curve" smooth="yes"/>
      <point x="626" y="280" type="line" smooth="yes"/>
      <point x="651" y="396"/>
      <point x="716" y="542"/>
      <point x="614" y="542" type="curve" smooth="yes"/>
      <point x="518" y="542"/>
      <point x="482" y="452"/>
      <point x="464" y="380" type="curve"/>
      <point x="444" y="380" type="line"/>
      <point x="489" y="553"/>
      <point x="566" y="583"/>
      <point x="678" y="583" type="curve" smooth="yes"/>
      <point x="816" y="583"/>
      <point x="950" y="502"/>
      <point x="890" y="242" type="curve" smooth="yes"/>
      <point x="857" y="86" type="line" smooth="yes"/>
      <point x="857" y="82"/>
      <point x="855" y="72"/>
      <point x="855" y="68" type="curve" smooth="yes"/>
      <point x="855" y="46"/>
      <point x="869" y="36"/>
      <point x="895" y="36" type="curve" smooth="yes"/>
      <point x="997" y="36"/>
      <point x="1111" y="186"/>
      <point x="1164" y="334" type="curve"/>
    </contour>
    <contour>
      <point x="507" y="500" type="curve"/>
      <point x="522" y="520" type="line"/>
      <point x="529" y="513"/>
      <point x="544" y="510"/>
      <point x="565" y="510" type="curve" smooth="yes"/>
      <point x="645" y="510"/>
      <point x="673" y="595"/>
      <point x="725" y="723" type="curve" smooth="yes"/>
      <point x="781" y="859"/>
      <point x="864" y="940"/>
      <point x="974" y="940" type="curve" smooth="yes"/>
      <point x="1084" y="940"/>
      <point x="1185" y="862"/>
      <point x="1185" y="738" type="curve" smooth="yes"/>
      <point x="1185" y="638"/>
      <point x="1118" y="578"/>
      <point x="1038" y="578" type="curve" smooth="yes"/>
      <point x="958" y="578"/>
      <point x="898" y="642"/>
      <point x="898" y="718" type="curve" smooth="yes"/>
      <point x="898" y="794"/>
      <point x="960" y="852"/>
      <point x="1036" y="852" type="curve" smooth="yes"/>
      <point x="1082" y="852"/>
      <point x="1119" y="828"/>
      <point x="1130" y="807" type="curve"/>
      <point x="1115" y="870"/>
      <point x="1049" y="912"/>
      <point x="975" y="912" type="curve" smooth="yes"/>
      <point x="883" y="912"/>
      <point x="808" y="848"/>
      <point x="754" y="714" type="curve" smooth="yes"/>
      <point x="700" y="578"/>
      <point x="664" y="484"/>
      <point x="565" y="484" type="curve" smooth="yes"/>
      <point x="539" y="484"/>
      <point x="514" y="489"/>
    </contour>
    <contour>
      <point x="438" y="1472" type="line"/>
      <point x="264" y="1472" type="line"/>
      <point x="264" y="1500" type="line"/>
      <point x="724" y="1500" type="line"/>
      <point x="376" y="0" type="line"/>
      <point x="96" y="0" type="line"/>
    </contour>
  </outline>
</glyph>
<glyph name="l" format="2">
  <advance width="724"/>
  <unicode hex="006C"/>
  <outline>
    <contour>
      <point x="679" y="326" type="line"/>
      <point x="603" y="126"/>
      <point x="465" y="-20"/>
      <point x="273" y="-20" type="curve" smooth="yes"/>
      <point x="149" y="-20"/>
      <point x="86" y="26"/>
      <point x="86" y="146" type="curve" smooth="yes"/>
      <point x="86" y="156"/>
      <point x="88" y="178"/>
      <point x="90" y="190" type="curve" smooth="yes"/>
      <point x="385" y="1472" type="line"/>
      <point x="203" y="1472" type="line"/>
      <point x="203" y="1500" type="line"/>
      <point x="669" y="1500" type="line"/>
      <point x="350" y="118" type="line" smooth="yes"/>
      <point x="348" y="106"/>
      <point x="346" y="92"/>
      <point x="346" y="82" type="curve" smooth="yes"/>
      <point x="346" y="60"/>
      <point x="356" y="42"/>
      <point x="382" y="42" type="curve" smooth="yes"/>
      <point x="482" y="42"/>
      <point x="599" y="184"/>
      <point x="653" y="334" type="curve"/>
    </contour>
  </outline>
</glyph>
<glyph name="m" format="2">
  <advance width="1811"/>
  <unicode hex="006D"/>
  <outline>
    <contour>
      <point x="1320" y="613" type="line" smooth="yes"/>
      <point x="1372" y="766"/>
      <point x="1381" y="884"/>
      <point x="1309" y="884" type="curve" smooth="yes"/>
      <point x="1203" y="884"/>
      <point x="1047" y="662"/>
      <point x="970" y="346" type="curve"/>
      <point x="950" y="346" type="line"/>
      <point x="1026" y="644"/>
      <point x="1157" y="940"/>
      <point x="1388" y="940" type="curve" smooth="yes"/>
      <point x="1592" y="940"/>
      <point x="1670" y="803"/>
      <point x="1608" y="616" type="curve" smooth="yes"/>
      <point x="1438" y="104" type="line" smooth="yes"/>
      <point x="1434" y="92"/>
      <point x="1432" y="78"/>
      <point x="1432" y="68" type="curve" smooth="yes"/>
      <point x="1432" y="46"/>
      <point x="1444" y="30"/>
      <point x="1470" y="30" type="curve" smooth="yes"/>
      <point x="1578" y="30"/>
      <point x="1685" y="181"/>
      <point x="1740" y="334" type="curve"/>
      <point x="1766" y="326" type="line"/>
      <point x="1690" y="126"/>
      <point x="1572" y="-20"/>
      <point x="1380" y="-20" type="curve" smooth="yes"/>
      <point x="1246" y="-20"/>
      <point x="1174" y="36"/>
      <point x="1174" y="142" type="curve" smooth="yes"/>
      <point x="1174" y="172"/>
      <point x="1179" y="196"/>
      <point x="1184" y="214" type="curve" smooth="yes"/>
    </contour>
    <contour>
      <point x="886" y="0" type="line"/>
      <point x="606" y="0" type="line"/>
      <point x="756" y="616" type="line" smooth="yes"/>
      <point x="794" y="774"/>
      <point x="819" y="884"/>
      <point x="747" y="884" type="curve" smooth="yes"/>
      <point x="638" y="884"/>
      <point x="482" y="655"/>
      <point x="408" y="346" type="curve"/>
      <point x="388" y="346" type="line"/>
      <point x="469" y="649"/>
      <point x="591" y="940"/>
      <point x="827" y="940" type="curve" smooth="yes"/>
      <point x="1031" y="940"/>
      <point x="1086" y="817"/>
      <point x="1042" y="638" type="curve" smooth="yes"/>
    </contour>
    <contour>
      <point x="260" y="892" type="line"/>
      <point x="126" y="892" type="line"/>
      <point x="126" y="920" type="line"/>
      <point x="546" y="920" type="line"/>
      <point x="326" y="0" type="line"/>
      <point x="46" y="0" type="line"/>
    </contour>
  </outline>
</glyph>
<glyph name="n" format="2">
  <advance width="1261"/>
  <unicode hex="006E"/>
  <outline>
    <contour>
      <point x="258" y="892" type="line"/>
      <point x="125" y="892" type="line"/>
      <point x="125" y="920" type="line"/>
      <point x="545" y="920" type="line"/>
      <point x="324" y="0" type="line"/>
      <point x="44" y="0" type="line"/>
    </contour>
    <contour>
      <point x="766" y="613" type="line" smooth="yes"/>
      <point x="818" y="766"/>
      <point x="825" y="887"/>
      <point x="753" y="887" type="curve" smooth="yes"/>
      <point x="641" y="887"/>
      <point x="481" y="652"/>
      <point x="406" y="346" type="curve"/>
      <point x="386" y="346" type="line"/>
      <point x="470" y="652"/>
      <point x="592" y="940"/>
      <point x="828" y="940" type="curve" smooth="yes"/>
      <point x="1032" y="940"/>
      <point x="1116" y="803"/>
      <point x="1054" y="616" type="curve" smooth="yes"/>
      <point x="884" y="104" type="line" smooth="yes"/>
      <point x="880" y="92"/>
      <point x="878" y="78"/>
      <point x="878" y="68" type="curve" smooth="yes"/>
      <point x="878" y="46"/>
      <point x="890" y="31"/>
      <point x="916" y="31" type="curve" smooth="yes"/>
      <point x="1023" y="31"/>
      <point x="1133" y="181"/>
      <point x="1188" y="334" type="curve"/>
      <point x="1214" y="326" type="line"/>
      <point x="1138" y="126"/>
      <point x="1018" y="-20"/>
      <point x="826" y="-20" type="curve" smooth="yes"/>
      <point x="692" y="-20"/>
      <point x="620" y="36"/>
      <point x="620" y="142" type="curve" smooth="yes"/>
      <point x="620" y="172"/>
      <point x="624" y="195"/>
      <point x="630" y="214" type="curve" smooth="yes"/>
    </contour>
  </outline>
</glyph>
<glyph name="o" format="2">
  <advance width="1115"/>
  <unicode hex="006F"/>
  <outline>
    <contour>
      <point x="434" y="-20" type="curve" smooth="yes"/>
      <point x="242" y="-20"/>
      <point x="36" y="80"/>
      <point x="36" y="330" type="curve" smooth="yes"/>
      <point x="36" y="710"/>
      <point x="340" y="940"/>
      <point x="652" y="940" type="curve" smooth="yes"/>
      <point x="844" y="940"/>
      <point x="1050" y="840"/>
      <point x="1050" y="590" type="curve" smooth="yes"/>
      <point x="1050" y="210"/>
      <point x="746" y="-20"/>
    </contour>
    <contour>
      <point x="434" y="9" type="curve" smooth="yes"/>
      <point x="632" y="9"/>
      <point x="762" y="462"/>
      <point x="762" y="710" type="curve" smooth="yes"/>
      <point x="762" y="842"/>
      <point x="730" y="911"/>
      <point x="652" y="911" type="curve" smooth="yes"/>
      <point x="454" y="911"/>
      <point x="324" y="458"/>
      <point x="324" y="210" type="curve" smooth="yes"/>
      <point x="324" y="78"/>
      <point x="356" y="9"/>
    </contour>
  </outline>
</glyph>
<glyph name="p" format="2">
  <advance width="1211"/>
  <unicode hex="0070"/>
  <outline>
    <contour>
      <point x="434" y="290" type="curve" smooth="yes"/>
      <point x="434" y="164"/>
      <point x="477" y="71"/>
      <point x="547" y="71" type="curve" smooth="yes"/>
      <point x="685" y="71"/>
      <point x="848" y="394"/>
      <point x="848" y="662" type="curve" smooth="yes"/>
      <point x="848" y="778"/>
      <point x="809" y="854"/>
      <point x="737" y="854" type="curve" smooth="yes"/>
      <point x="570" y="854"/>
      <point x="434" y="502"/>
    </contour>
    <contour>
      <point x="412" y="290" type="curve" smooth="yes"/>
      <point x="412" y="506"/>
      <point x="555" y="939"/>
      <point x="837" y="939" type="curve" smooth="yes"/>
      <point x="975" y="939"/>
      <point x="1156" y="858"/>
      <point x="1156" y="598" type="curve" smooth="yes"/>
      <point x="1156" y="198"/>
      <point x="842" y="-20"/>
      <point x="640" y="-20" type="curve" smooth="yes"/>
      <point x="488" y="-20"/>
      <point x="412" y="106"/>
    </contour>
    <contour>
      <point x="-184" y="-472" type="line"/>
      <point x="366" y="-472" type="line"/>
      <point x="366" y="-500" type="line"/>
      <point x="-184" y="-500" type="line"/>
    </contour>
    <contour>
      <point x="268" y="892" type="line"/>
      <point x="130" y="892" type="line"/>
      <point x="130" y="920" type="line"/>
      <point x="554" y="920" type="line"/>
      <point x="474" y="577" type="line"/>
      <point x="433" y="438" type="line"/>
      <point x="421" y="333" type="line"/>
      <point x="226" y="-500" type="line"/>
      <point x="-54" y="-500" type="line"/>
    </contour>
  </outline>
</glyph>
<glyph name="q" format="2">
  <advance width="2420"/>
  <unicode hex="0071"/>
  <outline>
    <contour>
      <point x="1872" y="-967" type="line"/>
      <point x="1872" y="-1024" type="line"/>
      <point x="786" y="-1024" type="line"/>
      <point x="786" y="-967" type="line"/>
    </contour>
    <contour>
      <point x="1585" y="-1024" type="line"/>
      <point x="1053" y="-1024" type="line"/>
      <point x="1462" y="722" type="line"/>
      <point x="1486" y="789"/>
      <point x="1539" y="978"/>
      <point x="1558" y="1061" type="curve"/>
      <point x="1583" y="1280" type="line"/>
      <point x="1716" y="1843" type="line"/>
      <point x="2265" y="1925" type="line"/>
    </contour>
    <contour>
      <point x="1550" y="1286" type="curve" smooth="yes"/>
      <point x="1550" y="1544"/>
      <point x="1462" y="1736"/>
      <point x="1319" y="1736" type="curve" smooth="yes"/>
      <point x="1037" y="1736"/>
      <point x="704" y="1073"/>
      <point x="704" y="524" type="curve" smooth="yes"/>
      <point x="704" y="286"/>
      <point x="782" y="131"/>
      <point x="930" y="131" type="curve" smooth="yes"/>
      <point x="1272" y="131"/>
      <point x="1550" y="852"/>
    </contour>
    <contour>
      <point x="1595" y="1286" type="curve" smooth="yes"/>
      <point x="1595" y="844"/>
      <point x="1303" y="-41"/>
      <point x="725" y="-41" type="curve" smooth="yes"/>
      <point x="442" y="-41"/>
      <point x="74" y="123"/>
      <point x="74" y="655" type="curve" smooth="yes"/>
      <point x="74" y="1474"/>
      <point x="716" y="1925"/>
      <point x="1130" y="1925" type="curve" smooth="yes"/>
      <point x="1441" y="1925"/>
      <point x="1595" y="1663"/>
    </contour>
  </outline>
</glyph>
<glyph name="r" format="2">
  <advance width="1974"/>
  <unicode hex="0072"/>
  <outline>
    <contour>
      <point x="2064" y="1491" type="curve" smooth="yes"/>
      <point x="2064" y="1301"/>
      <point x="1942" y="1138"/>
      <point x="1724" y="1138" type="curve" smooth="yes"/>
      <point x="1528" y="1138"/>
      <point x="1380" y="1263"/>
      <point x="1380" y="1466" type="curve" smooth="yes"/>
      <point x="1380" y="1650"/>
      <point x="1527" y="1802"/>
      <point x="1728" y="1802" type="curve" smooth="yes"/>
      <point x="1796" y="1802"/>
      <point x="1858" y="1767"/>
      <point x="1882" y="1728" type="curve"/>
      <point x="1837" y="1816"/>
      <point x="1700" y="1868"/>
      <point x="1594" y="1868" type="curve" smooth="yes"/>
      <point x="1174" y="1868"/>
      <point x="946" y="1110"/>
      <point x="848" y="709" type="curve"/>
      <point x="807" y="709" type="line"/>
      <point x="907" y="1187"/>
      <point x="1126" y="1925"/>
      <point x="1606" y="1925" type="curve" smooth="yes"/>
      <point x="1835" y="1925"/>
      <point x="2064" y="1753"/>
    </contour>
    <contour>
      <point x="553" y="1827" type="line"/>
      <point x="258" y="1827" type="line"/>
      <point x="258" y="1884" type="line"/>
      <point x="1118" y="1884" type="line"/>
      <point x="688" y="0" type="line"/>
      <point x="115" y="0" type="line"/>
    </contour>
  </outline>
</glyph>
<glyph name="s" format="2">
  <advance width="915"/>
  <unicode hex="0073"/>
  <outline>
    <contour>
      <point x="749" y="812" type="curve"/>
      <point x="724" y="859"/>
      <point x="641" y="910"/>
      <point x="504" y="910" type="curve" smooth="yes"/>
      <point x="382" y="910"/>
      <point x="320" y="854"/>
      <point x="320" y="782" type="curve" smooth="yes"/>
      <point x="320" y="594"/>
      <point x="770" y="570"/>
      <point x="770" y="304" type="curve" smooth="yes"/>
      <point x="770" y="116"/>
      <point x="580" y="-24"/>
      <point x="356" y="-24" type="curve" smooth="yes"/>
      <point x="98" y="-24"/>
      <point x="-4" y="110"/>
      <point x="-4" y="220" type="curve" smooth="yes"/>
      <point x="-4" y="312"/>
      <point x="68" y="364"/>
      <point x="138" y="364" type="curve" smooth="yes"/>
      <point x="198" y="364"/>
      <point x="274" y="322"/>
      <point x="274" y="232" type="curve" smooth="yes"/>
      <point x="274" y="152"/>
      <point x="208" y="102"/>
      <point x="140" y="102" type="curve" smooth="yes"/>
      <point x="88" y="102"/>
      <point x="62" y="129"/>
      <point x="54" y="145" type="curve"/>
      <point x="82" y="81"/>
      <point x="157" y="4"/>
      <point x="356" y="4" type="curve" smooth="yes"/>
      <point x="496" y="4"/>
      <point x="584" y="78"/>
      <point x="584" y="158" type="curve" smooth="yes"/>
      <point x="584" y="330"/>
      <point x="128" y="342"/>
      <point x="128" y="634" type="curve" smooth="yes"/>
      <point x="128" y="832"/>
      <point x="328" y="938"/>
      <point x="498" y="938" type="curve" smooth="yes"/>
      <point x="707" y="938"/>
      <point x="820" y="839"/>
      <point x="820" y="735" type="curve" smooth="yes"/>
      <point x="820" y="653"/>
      <point x="765" y="606"/>
      <point x="695" y="606" type="curve" smooth="yes"/>
      <point x="635" y="606"/>
      <point x="566" y="648"/>
      <point x="566" y="728" type="curve" smooth="yes"/>
      <point x="566" y="798"/>
      <point x="618" y="848"/>
      <point x="678" y="848" type="curve" smooth="yes"/>
      <point x="720" y="848"/>
      <point x="736" y="831"/>
    </contour>
  </outline>
</glyph>
<glyph name="t" format="2">
  <advance width="741"/>
  <unicode hex="0074"/>
  <outline>
    <contour>
      <point x="97" y="920" type="line"/>
      <point x="737" y="920" type="line"/>
      <point x="737" y="892" type="line"/>
      <point x="97" y="892" type="line"/>
    </contour>
    <contour>
      <point x="693" y="326" type="line"/>
      <point x="617" y="126"/>
      <point x="479" y="-20"/>
      <point x="287" y="-20" type="curve" smooth="yes"/>
      <point x="163" y="-20"/>
      <point x="97" y="26"/>
      <point x="97" y="146" type="curve" smooth="yes"/>
      <point x="97" y="156"/>
      <point x="99" y="178"/>
      <point x="102" y="190" type="curve" smooth="yes"/>
      <point x="315" y="1120" type="line"/>
      <point x="593" y="1120" type="line"/>
      <point x="362" y="118" type="line" smooth="yes"/>
      <point x="360" y="106"/>
      <point x="358" y="92"/>
      <point x="358" y="82" type="curve" smooth="yes"/>
      <point x="358" y="60"/>
      <point x="368" y="44"/>
      <point x="394" y="44" type="curve" smooth="yes"/>
      <point x="501" y="44"/>
      <point x="614" y="191"/>
      <point x="666" y="334" type="curve"/>
    </contour>
  </outline>
</glyph>
<glyph name="u" format="2">
  <advance width="2709"/>
  <unicode hex="0075"/>
  <outline>
    <contour>
      <point x="1132" y="1884" type="line"/>
      <point x="834" y="608" type="line" smooth="yes"/>
      <point x="760" y="284"/>
      <point x="737" y="80"/>
      <point x="889" y="80" type="curve" smooth="yes"/>
      <point x="1098" y="80"/>
      <point x="1429" y="541"/>
      <point x="1587" y="1176" type="curve"/>
      <point x="1632" y="1176" type="line"/>
      <point x="1456" y="541"/>
      <point x="1194" y="-41"/>
      <point x="714" y="-41" type="curve" smooth="yes"/>
      <point x="317" y="-41"/>
      <point x="186" y="242"/>
      <point x="260" y="578" type="curve" smooth="yes"/>
      <point x="543" y="1827" type="line"/>
      <point x="264" y="1827" type="line"/>
      <point x="264" y="1884" type="line"/>
    </contour>
    <contour>
      <point x="2616" y="668" type="line"/>
      <point x="2460" y="258"/>
      <point x="2178" y="-41"/>
      <point x="1784" y="-41" type="curve" smooth="yes"/>
      <point x="1530" y="-41"/>
      <point x="1397" y="53"/>
      <point x="1397" y="299" type="curve" smooth="yes"/>
      <point x="1397" y="319"/>
      <point x="1401" y="364"/>
      <point x="1405" y="389" type="curve" smooth="yes"/>
      <point x="1743" y="1884" type="line"/>
      <point x="2320" y="1884" type="line"/>
      <point x="1938" y="242" type="line" smooth="yes"/>
      <point x="1934" y="217"/>
      <point x="1929" y="188"/>
      <point x="1929" y="168" type="curve" smooth="yes"/>
      <point x="1929" y="123"/>
      <point x="1950" y="90"/>
      <point x="2003" y="90" type="curve" smooth="yes"/>
      <point x="2223" y="90"/>
      <point x="2456" y="389"/>
      <point x="2562" y="684" type="curve"/>
    </contour>
  </outline>
</glyph>
<glyph name="v" format="2">
  <advance width="1213"/>
  <unicode hex="0076"/>
  <outline>
    <contour>
      <point x="545" y="277" type="line" smooth="yes"/>
      <point x="519" y="119"/>
      <point x="495" y="27"/>
      <point x="607" y="27" type="curve" smooth="yes"/>
      <point x="797" y="27"/>
      <point x="1152" y="360"/>
      <point x="1152" y="688" type="curve" smooth="yes"/>
      <point x="1152" y="724"/>
      <point x="1146" y="746"/>
      <point x="1140" y="761" type="curve"/>
      <point x="1135" y="699"/>
      <point x="1061" y="610"/>
      <point x="966" y="610" type="curve" smooth="yes"/>
      <point x="860" y="610"/>
      <point x="800" y="694"/>
      <point x="800" y="774" type="curve" smooth="yes"/>
      <point x="800" y="864"/>
      <point x="873" y="938"/>
      <point x="977" y="938" type="curve" smooth="yes"/>
      <point x="1113" y="938"/>
      <point x="1178" y="820"/>
      <point x="1178" y="688" type="curve" smooth="yes"/>
      <point x="1178" y="354"/>
      <point x="826" y="-20"/>
      <point x="540" y="-20" type="curve" smooth="yes"/>
      <point x="316" y="-20"/>
      <point x="231" y="109"/>
      <point x="265" y="292" type="curve" smooth="yes"/>
      <point x="359" y="802" type="line" smooth="yes"/>
      <point x="361" y="814"/>
      <point x="363" y="828"/>
      <point x="363" y="838" type="curve" smooth="yes"/>
      <point x="363" y="860"/>
      <point x="350" y="876"/>
      <point x="323" y="876" type="curve" smooth="yes"/>
      <point x="207" y="876"/>
      <point x="109" y="725"/>
      <point x="54" y="586" type="curve"/>
      <point x="26" y="594" type="line"/>
      <point x="112" y="794"/>
      <point x="220" y="940"/>
      <point x="432" y="940" type="curve" smooth="yes"/>
      <point x="566" y="940"/>
      <point x="621" y="885"/>
      <point x="621" y="789" type="curve" smooth="yes"/>
      <point x="621" y="759"/>
      <point x="618" y="740"/>
      <point x="614" y="716" type="curve" smooth="yes"/>
    </contour>
  </outline>
</glyph>
<glyph name="w" format="2">
  <advance width="1809"/>
  <unicode hex="0077"/>
  <outline>
    <contour>
      <point x="470" y="306" type="line" smooth="yes"/>
      <point x="418" y="152"/>
      <point x="429" y="35"/>
      <point x="521" y="35" type="curve" smooth="yes"/>
      <point x="657" y="35"/>
      <point x="810" y="270"/>
      <point x="884" y="574" type="curve"/>
      <point x="906" y="574" type="line"/>
      <point x="830" y="277"/>
      <point x="705" y="-20"/>
      <point x="430" y="-20" type="curve" smooth="yes"/>
      <point x="216" y="-20"/>
      <point x="127" y="104"/>
      <point x="186" y="282" type="curve" smooth="yes"/>
      <point x="360" y="802" type="line" smooth="yes"/>
      <point x="364" y="814"/>
      <point x="366" y="828"/>
      <point x="366" y="838" type="curve" smooth="yes"/>
      <point x="366" y="860"/>
      <point x="353" y="876"/>
      <point x="326" y="876" type="curve" smooth="yes"/>
      <point x="210" y="876"/>
      <point x="114" y="733"/>
      <point x="54" y="586" type="curve"/>
      <point x="26" y="594" type="line"/>
      <point x="112" y="794"/>
      <point x="220" y="940"/>
      <point x="432" y="940" type="curve" smooth="yes"/>
      <point x="556" y="940"/>
      <point x="623" y="890"/>
      <point x="623" y="784" type="curve" smooth="yes"/>
      <point x="623" y="754"/>
      <point x="617" y="730"/>
      <point x="613" y="716" type="curve" smooth="yes"/>
    </contour>
    <contour>
      <point x="966" y="920" type="line"/>
      <point x="1246" y="920" type="line"/>
      <point x="1116" y="371" type="line" smooth="yes"/>
      <point x="1076" y="203"/>
      <point x="1084" y="26"/>
      <point x="1242" y="26" type="curve" smooth="yes"/>
      <point x="1532" y="26"/>
      <point x="1746" y="464"/>
      <point x="1746" y="688" type="curve" smooth="yes"/>
      <point x="1746" y="719"/>
      <point x="1742" y="744"/>
      <point x="1737" y="757" type="curve"/>
      <point x="1730" y="681"/>
      <point x="1661" y="610"/>
      <point x="1559" y="610" type="curve" smooth="yes"/>
      <point x="1449" y="610"/>
      <point x="1394" y="694"/>
      <point x="1394" y="774" type="curve" smooth="yes"/>
      <point x="1394" y="864"/>
      <point x="1472" y="938"/>
      <point x="1571" y="938" type="curve" smooth="yes"/>
      <point x="1687" y="938"/>
      <point x="1774" y="840"/>
      <point x="1774" y="688" type="curve" smooth="yes"/>
      <point x="1774" y="468"/>
      <point x="1574" y="-20"/>
      <point x="1184" y="-20" type="curve" smooth="yes"/>
      <point x="996" y="-20"/>
      <point x="804" y="66"/>
      <point x="837" y="381" type="curve"/>
    </contour>
  </outline>
</glyph>
<glyph name="x" format="2">
  <advance width="1234"/>
  <unicode hex="0078"/>
  <outline>
    <contour>
      <point x="641" y="489" type="line"/>
      <point x="761" y="685"/>
      <point x="869" y="940"/>
      <point x="1057" y="940" type="curve" smooth="yes"/>
      <point x="1199" y="940"/>
      <point x="1259" y="832"/>
      <point x="1259" y="748" type="curve" smooth="yes"/>
      <point x="1259" y="656"/>
      <point x="1199" y="588"/>
      <point x="1103" y="588" type="curve" smooth="yes"/>
      <point x="1003" y="588"/>
      <point x="953" y="672"/>
      <point x="953" y="742" type="curve" smooth="yes"/>
      <point x="953" y="816"/>
      <point x="1014" y="892"/>
      <point x="1100" y="892" type="curve" smooth="yes"/>
      <point x="1131" y="892"/>
      <point x="1157" y="875"/>
      <point x="1172" y="853" type="curve"/>
      <point x="1149" y="888"/>
      <point x="1112" y="914"/>
      <point x="1060" y="914" type="curve" smooth="yes"/>
      <point x="893" y="914"/>
      <point x="787" y="670"/>
      <point x="668" y="475" type="curve"/>
    </contour>
    <contour>
      <point x="621" y="491" type="line"/>
      <point x="479" y="255"/>
      <point x="356" y="-20"/>
      <point x="168" y="-20" type="curve" smooth="yes"/>
      <point x="26" y="-20"/>
      <point x="-34" y="88"/>
      <point x="-34" y="172" type="curve" smooth="yes"/>
      <point x="-34" y="264"/>
      <point x="26" y="332"/>
      <point x="122" y="332" type="curve" smooth="yes"/>
      <point x="222" y="332"/>
      <point x="272" y="248"/>
      <point x="272" y="178" type="curve" smooth="yes"/>
      <point x="272" y="104"/>
      <point x="212" y="28"/>
      <point x="125" y="28" type="curve" smooth="yes"/>
      <point x="90" y="28"/>
      <point x="65" y="50"/>
      <point x="53" y="73" type="curve"/>
      <point x="76" y="32"/>
      <point x="114" y="6"/>
      <point x="166" y="6" type="curve" smooth="yes"/>
      <point x="333" y="6"/>
      <point x="457" y="275"/>
      <point x="595" y="505" type="curve"/>
    </contour>
    <contour>
      <point x="1137" y="218" type="line"/>
      <point x="1072" y="48"/>
      <point x="971" y="-20"/>
      <point x="827" y="-20" type="curve" smooth="yes"/>
      <point x="673" y="-20"/>
      <point x="611" y="50"/>
      <point x="570" y="166" type="curve" smooth="yes"/>
      <point x="513" y="335"/>
      <point x="423" y="690"/>
      <point x="371" y="834" type="curve" smooth="yes"/>
      <point x="363" y="856"/>
      <point x="352" y="882"/>
      <point x="315" y="882" type="curve" smooth="yes"/>
      <point x="253" y="882"/>
      <point x="188" y="798"/>
      <point x="147" y="686" type="curve"/>
      <point x="121" y="698" type="line"/>
      <point x="185" y="868"/>
      <point x="273" y="944"/>
      <point x="437" y="944" type="curve" smooth="yes"/>
      <point x="591" y="944"/>
      <point x="645" y="874"/>
      <point x="686" y="758" type="curve" smooth="yes"/>
      <point x="745" y="581"/>
      <point x="820" y="286"/>
      <point x="890" y="92" type="curve" smooth="yes"/>
      <point x="898" y="70"/>
      <point x="921" y="44"/>
      <point x="949" y="44" type="curve" smooth="yes"/>
      <point x="999" y="44"/>
      <point x="1073" y="120"/>
      <point x="1113" y="229" type="curve"/>
    </contour>
  </outline>
</glyph>
<glyph name="y" format="2">
  <advance width="1267"/>
  <unicode hex="0079"/>
  <outline>
    <contour>
      <point x="684" y="-192" type="curve"/>
      <point x="517" y="92"/>
      <point x="373" y="678"/>
      <point x="319" y="822" type="curve" smooth="yes"/>
      <point x="311" y="844"/>
      <point x="296" y="872"/>
      <point x="260" y="872" type="curve" smooth="yes"/>
      <point x="203" y="872"/>
      <point x="131" y="797"/>
      <point x="92" y="682" type="curve"/>
      <point x="66" y="694" type="line"/>
      <point x="132" y="874"/>
      <point x="248" y="940"/>
      <point x="392" y="940" type="curve" smooth="yes"/>
      <point x="529" y="940"/>
      <point x="598" y="868"/>
      <point x="633" y="752" type="curve" smooth="yes"/>
      <point x="688" y="572"/>
      <point x="757" y="246"/>
      <point x="889" y="51" type="curve"/>
      <point x="853" y="1"/>
      <point x="724" y="-144"/>
    </contour>
    <contour>
      <point x="227" y="-520" type="curve" smooth="yes"/>
      <point x="47" y="-520"/>
      <point x="-40" y="-392"/>
      <point x="-40" y="-272" type="curve" smooth="yes"/>
      <point x="-40" y="-176"/>
      <point x="28" y="-90"/>
      <point x="124" y="-90" type="curve" smooth="yes"/>
      <point x="204" y="-90"/>
      <point x="276" y="-142"/>
      <point x="276" y="-238" type="curve" smooth="yes"/>
      <point x="276" y="-324"/>
      <point x="215" y="-386"/>
      <point x="133" y="-386" type="curve" smooth="yes"/>
      <point x="61" y="-386"/>
      <point x="13" y="-347"/>
      <point x="-6" y="-295" type="curve"/>
      <point x="-5" y="-373"/>
      <point x="65" y="-492"/>
      <point x="225" y="-492" type="curve" smooth="yes"/>
      <point x="574" y="-492"/>
      <point x="1206" y="483"/>
      <point x="1206" y="720" type="curve" smooth="yes"/>
      <point x="1206" y="743"/>
      <point x="1200" y="768"/>
      <point x="1193" y="783" type="curve"/>
      <point x="1191" y="702"/>
      <point x="1126" y="632"/>
      <point x="1038" y="632" type="curve" smooth="yes"/>
      <point x="934" y="632"/>
      <point x="880" y="716"/>
      <point x="880" y="786" type="curve" smooth="yes"/>
      <point x="880" y="866"/>
      <point x="941" y="940"/>
      <point x="1045" y="940" type="curve" smooth="yes"/>
      <point x="1177" y="940"/>
      <point x="1237" y="824"/>
      <point x="1237" y="722" type="curve" smooth="yes"/>
      <point x="1237" y="462"/>
      <point x="594" y="-520"/>
    </contour>
  </outline>
</glyph>
<glyph name="z" format="2">
  <advance width="1881"/>
  <unicode hex="007A"/>
  <outline>
    <contour>
      <point x="114" y="962" type="line"/>
      <point x="336" y="1904" type="line"/>
      <point x="557" y="1781"/>
      <point x="803" y="1744"/>
      <point x="1053" y="1744" type="curve" smooth="yes"/>
      <point x="1291" y="1744"/>
      <point x="1638" y="1781"/>
      <point x="1790" y="1902" type="curve"/>
      <point x="1844" y="1848" type="line"/>
      <point x="1434" y="1574"/>
      <point x="1047" y="1228"/>
      <point x="731" y="1228" type="curve" smooth="yes"/>
      <point x="551" y="1228"/>
      <point x="380" y="1286"/>
      <point x="274" y="1372" type="curve"/>
      <point x="172" y="962" type="line"/>
    </contour>
    <contour>
      <point x="-10" y="49" type="line"/>
      <point x="-131" y="12" type="line"/>
      <point x="1732" y="1820" type="line"/>
      <point x="1844" y="1848" type="line"/>
    </contour>
    <contour>
      <point x="1770" y="678" type="curve"/>
      <point x="1725" y="576"/>
      <point x="1649" y="496"/>
      <point x="1508" y="496" type="curve" smooth="yes"/>
      <point x="1371" y="496"/>
      <point x="1228" y="618"/>
      <point x="1228" y="782" type="curve" smooth="yes"/>
      <point x="1228" y="966"/>
      <point x="1381" y="1073"/>
      <point x="1524" y="1073" type="curve" smooth="yes"/>
      <point x="1688" y="1073"/>
      <point x="1831" y="957"/>
      <point x="1831" y="748" type="curve" smooth="yes"/>
      <point x="1831" y="502"/>
      <point x="1565" y="-41"/>
      <point x="1106" y="-41" type="curve" smooth="yes"/>
      <point x="815" y="-41"/>
      <point x="680" y="160"/>
      <point x="410" y="160" type="curve" smooth="yes"/>
      <point x="213" y="160"/>
      <point x="51" y="90"/>
      <point x="-80" y="-41" type="curve"/>
      <point x="-131" y="12" type="line"/>
      <point x="242" y="258"/>
      <point x="573" y="553"/>
      <point x="860" y="553" type="curve" smooth="yes"/>
      <point x="1130" y="553"/>
      <point x="1157" y="316"/>
      <point x="1448" y="316" type="curve" smooth="yes"/>
      <point x="1652" y="316"/>
      <point x="1756" y="520"/>
    </contour>
  </outline>
</glyph>
<glyph name="braceleft" format="2">
  <advance width="1318"/>
  <unicode hex="007B"/>
  <outline>
    <contour>
      <point x="1770" y="3195" type="curve"/>
      <point x="1770" y="3126" type="line"/>
      <point x="1454" y="3126"/>
      <point x="1219" y="2849"/>
      <point x="1219" y="2515" type="curve" smooth="yes"/>
      <point x="1219" y="2286"/>
      <point x="1266" y="2175"/>
      <point x="1266" y="1888" type="curve" smooth="yes"/>
      <point x="1266" y="1486"/>
      <point x="712" y="1315"/>
      <point x="348" y="1274" type="curve"/>
      <point x="348" y="1325" type="line"/>
      <point x="471" y="1366"/>
      <point x="716" y="1458"/>
      <point x="716" y="1667" type="curve" smooth="yes"/>
      <point x="716" y="1905"/>
      <point x="623" y="1983"/>
      <point x="623" y="2339" type="curve" smooth="yes"/>
      <point x="623" y="2867"/>
      <point x="1094" y="3195"/>
    </contour>
    <contour>
      <point x="910" y="-614" type="line"/>
      <point x="316" y="-614"/>
      <point x="20" y="-487"/>
      <point x="20" y="-102" type="curve" smooth="yes"/>
      <point x="20" y="398"/>
      <point x="553" y="746"/>
      <point x="553" y="1004" type="curve" smooth="yes"/>
      <point x="553" y="1172"/>
      <point x="471" y="1215"/>
      <point x="348" y="1256" type="curve"/>
      <point x="348" y="1309" type="line"/>
      <point x="712" y="1268"/>
      <point x="991" y="1180"/>
      <point x="991" y="860" type="curve" smooth="yes"/>
      <point x="991" y="450"/>
      <point x="606" y="123"/>
      <point x="606" y="-188" type="curve" smooth="yes"/>
      <point x="606" y="-372"/>
      <point x="656" y="-544"/>
      <point x="910" y="-544" type="curve"/>
    </contour>
  </outline>
</glyph>
<glyph name="asciitilde" format="2">
  <advance width="1375"/>
  <unicode hex="007E"/>
  <outline>
    <contour>
      <point x="542" y="844" type="curve" smooth="yes"/>
      <point x="432" y="844"/>
      <point x="369" y="800"/>
      <point x="334" y="686" type="curve"/>
      <point x="300" y="686" type="line"/>
      <point x="350" y="916"/>
      <point x="450" y="1050"/>
      <point x="628" y="1050" type="curve" smooth="yes"/>
      <point x="848" y="1050"/>
      <point x="868" y="862"/>
      <point x="1054" y="862" type="curve" smooth="yes"/>
      <point x="1184" y="862"/>
      <point x="1247" y="906"/>
      <point x="1282" y="1020" type="curve"/>
      <point x="1316" y="1020" type="line"/>
      <point x="1266" y="790"/>
      <point x="1166" y="656"/>
      <point x="988" y="656" type="curve" smooth="yes"/>
      <point x="744" y="656"/>
      <point x="722" y="844"/>
    </contour>
  </outline>
</glyph>
<glyph name="cent" format="2">
  <advance width="2047"/>
  <unicode hex="00A2"/>
  <outline>
    <contour>
      <point x="1470" y="2273" type="line"/>
      <point x="774" y="-348" type="line"/>
      <point x="717" y="-348" type="line"/>
      <point x="1413" y="2273" type="line"/>
    </contour>
    <component base="c"/>
  </outline>
</glyph>
<glyph name="sterling" format="2">
  <advance width="1308"/>
  <unicode hex="00A3"/>
  <outline>
    <contour>
      <point x="1284" y="434" type="line"/>
      <point x="1244" y="140"/>
      <point x="1062" y="-60"/>
      <point x="830" y="-60" type="curve" smooth="yes"/>
      <point x="556" y="-60"/>
      <point x="414" y="60"/>
      <point x="288" y="60" type="curve" smooth="yes"/>
      <point x="202" y="60"/>
      <point x="128" y="20"/>
      <point x="92" y="-40" type="curve"/>
      <point x="76" y="-40" type="line"/>
      <point x="146" y="148"/>
      <point x="357" y="314"/>
      <point x="547" y="314" type="curve" smooth="yes"/>
      <point x="741" y="314"/>
      <point x="774" y="246"/>
      <point x="937" y="246" type="curve" smooth="yes"/>
      <point x="1074" y="246"/>
      <point x="1216" y="270"/>
      <point x="1256" y="434" type="curve"/>
    </contour>
    <contour>
      <point x="1130" y="810" type="line"/>
      <point x="1130" y="782" type="line"/>
      <point x="130" y="782" type="line"/>
      <point x="130" y="810" type="line"/>
    </contour>
    <contour>
      <point x="356" y="1030" type="curve" smooth="yes"/>
      <point x="356" y="1330"/>
      <point x="667" y="1520"/>
      <point x="1029" y="1520" type="curve" smooth="yes"/>
      <point x="1323" y="1520"/>
      <point x="1449" y="1356"/>
      <point x="1449" y="1172" type="curve" smooth="yes"/>
      <point x="1449" y="1060"/>
      <point x="1366" y="988"/>
      <point x="1276" y="988" type="curve" smooth="yes"/>
      <point x="1186" y="988"/>
      <point x="1102" y="1050"/>
      <point x="1102" y="1160" type="curve" smooth="yes"/>
      <point x="1102" y="1260"/>
      <point x="1188" y="1320"/>
      <point x="1276" y="1320" type="curve" smooth="yes"/>
      <point x="1349" y="1320"/>
      <point x="1398" y="1271"/>
      <point x="1414" y="1235" type="curve"/>
      <point x="1394" y="1370"/>
      <point x="1271" y="1487"/>
      <point x="1079" y="1487" type="curve" smooth="yes"/>
      <point x="841" y="1487"/>
      <point x="718" y="1278"/>
      <point x="718" y="1130" type="curve" smooth="yes"/>
      <point x="718" y="1002"/>
      <point x="760" y="940"/>
      <point x="760" y="780" type="curve" smooth="yes"/>
      <point x="760" y="380"/>
      <point x="76" y="330"/>
      <point x="92" y="-40" type="curve"/>
      <point x="64" y="-40" type="line"/>
      <point x="36" y="238"/>
      <point x="418" y="384"/>
      <point x="418" y="622" type="curve" smooth="yes"/>
      <point x="418" y="740"/>
      <point x="356" y="860"/>
    </contour>
  </outline>
</glyph>
<glyph name="section" format="2">
  <advance width="947"/>
  <unicode hex="00A7"/>
  <outline>
    <contour>
      <point x="452" y="1282" type="curve" smooth="yes"/>
      <point x="452" y="1066"/>
      <point x="946" y="1116"/>
      <point x="946" y="814" type="curve" smooth="yes"/>
      <point x="946" y="654"/>
      <point x="775" y="588"/>
      <point x="668" y="518" type="curve"/>
      <point x="649" y="526" type="line"/>
      <point x="705" y="570"/>
      <point x="755" y="612"/>
      <point x="755" y="692" type="curve" smooth="yes"/>
      <point x="755" y="891"/>
      <point x="281" y="817"/>
      <point x="281" y="1161" type="curve" smooth="yes"/>
      <point x="281" y="1369"/>
      <point x="506" y="1520"/>
      <point x="716" y="1520" type="curve" smooth="yes"/>
      <point x="912" y="1520"/>
      <point x="1037" y="1394"/>
      <point x="1037" y="1262" type="curve" smooth="yes"/>
      <point x="1037" y="1140"/>
      <point x="974" y="1080"/>
      <point x="884" y="1080" type="curve" smooth="yes"/>
      <point x="804" y="1080"/>
      <point x="746" y="1130"/>
      <point x="746" y="1222" type="curve" smooth="yes"/>
      <point x="746" y="1296"/>
      <point x="812" y="1352"/>
      <point x="884" y="1352" type="curve" smooth="yes"/>
      <point x="947" y="1352"/>
      <point x="981" y="1323"/>
      <point x="998" y="1305" type="curve"/>
      <point x="988" y="1377"/>
      <point x="913" y="1492"/>
      <point x="716" y="1492" type="curve" smooth="yes"/>
      <point x="570" y="1492"/>
      <point x="452" y="1406"/>
    </contour>
    <contour>
      <point x="840" y="354" type="curve" smooth="yes"/>
      <point x="840" y="146"/>
      <point x="610" y="-20"/>
      <point x="360" y="-20" type="curve" smooth="yes"/>
      <point x="184" y="-20"/>
      <point x="-8" y="63"/>
      <point x="-8" y="255" type="curve" smooth="yes"/>
      <point x="-8" y="347"/>
      <point x="60" y="429"/>
      <point x="160" y="429" type="curve" smooth="yes"/>
      <point x="240" y="429"/>
      <point x="300" y="382"/>
      <point x="300" y="300" type="curve" smooth="yes"/>
      <point x="300" y="216"/>
      <point x="234" y="157"/>
      <point x="152" y="157" type="curve" smooth="yes"/>
      <point x="80" y="157"/>
      <point x="42" y="195"/>
      <point x="24" y="225" type="curve"/>
      <point x="46" y="71"/>
      <point x="211" y="6"/>
      <point x="360" y="6" type="curve" smooth="yes"/>
      <point x="566" y="6"/>
      <point x="662" y="137"/>
      <point x="662" y="218" type="curve" smooth="yes"/>
      <point x="662" y="427"/>
      <point x="138" y="384"/>
      <point x="138" y="670" type="curve" smooth="yes"/>
      <point x="138" y="814"/>
      <point x="306" y="948"/>
      <point x="404" y="990" type="curve"/>
      <point x="430" y="990" type="line"/>
      <point x="404" y="972"/>
      <point x="346" y="913"/>
      <point x="346" y="838" type="curve" smooth="yes"/>
      <point x="346" y="619"/>
      <point x="840" y="678"/>
    </contour>
  </outline>
</glyph>
<glyph name="guillemotleft" format="2">
  <advance width="1389"/>
  <unicode hex="00AB"/>
  <outline>
    <contour>
      <point x="1062" y="776" type="line"/>
      <point x="1284" y="304" type="line"/>
      <point x="1270" y="290" type="line"/>
      <point x="710" y="750" type="line"/>
      <point x="710" y="800" type="line"/>
      <point x="1490" y="1260" type="line"/>
      <point x="1504" y="1246" type="line"/>
    </contour>
    <contour>
      <point x="502" y="776" type="line"/>
      <point x="724" y="304" type="line"/>
      <point x="710" y="290" type="line"/>
      <point x="150" y="750" type="line"/>
      <point x="150" y="800" type="line"/>
      <point x="930" y="1260" type="line"/>
      <point x="944" y="1246" type="line"/>
    </contour>
  </outline>
</glyph>
<glyph name="acute" format="2">
  <advance width="1658"/>
  <unicode hex="00B4"/>
  <outline>
    <contour>
      <point x="1884" y="2846" type="curve" smooth="yes"/>
      <point x="942" y="2920" type="line"/>
      <point x="928" y="2978" type="line"/>
      <point x="1844" y="3290" type="line" smooth="yes"/>
      <point x="2004" y="3350"/>
      <point x="2150" y="3212"/>
      <point x="2150" y="3072" type="curve" smooth="yes"/>
      <point x="2150" y="2932"/>
      <point x="2024" y="2828"/>
    </contour>
  </outline>
</glyph>
<glyph name="mu" format="2">
  <advance width="1322"/>
  <unicode hex="00B5"/>
  <outline>
    <contour>
      <point x="48" y="-182" type="line" smooth="yes"/>
      <point x="6" y="-362"/>
      <point x="28" y="-490"/>
      <point x="198" y="-500" type="curve"/>
      <point x="220" y="-496" type="line"/>
      <point x="166" y="-464"/>
      <point x="140" y="-418"/>
      <point x="140" y="-362" type="curve" smooth="yes"/>
      <point x="140" y="-294"/>
      <point x="196" y="-248"/>
      <point x="262" y="-248" type="curve" smooth="yes"/>
      <point x="328" y="-248"/>
      <point x="384" y="-304"/>
      <point x="384" y="-380" type="curve" smooth="yes"/>
      <point x="384" y="-458"/>
      <point x="340" y="-520"/>
      <point x="194" y="-520" type="curve" smooth="yes"/>
      <point x="14" y="-520"/>
      <point x="-24" y="-372"/>
      <point x="20" y="-182" type="curve" smooth="yes"/>
      <point x="210" y="642" type="line"/>
      <point x="238" y="642" type="line"/>
    </contour>
    <component base="u"/>
  </outline>
</glyph>
<glyph name="AE" format="2">
  <advance width="2059"/>
  <unicode hex="00C6"/>
  <outline>
    <contour>
      <point x="1428" y="1500" type="line"/>
      <point x="2248" y="1500" type="line"/>
      <point x="2152" y="1090" type="line"/>
      <point x="2124" y="1090" type="line"/>
      <point x="2144" y="1304"/>
      <point x="2062" y="1472"/>
      <point x="1828" y="1472" type="curve" smooth="yes"/>
      <point x="1428" y="1472" type="line"/>
    </contour>
    <contour>
      <point x="1506" y="762" type="curve" smooth="yes"/>
      <point x="1374" y="762" type="line"/>
      <point x="1374" y="790" type="line"/>
      <point x="1506" y="790" type="line" smooth="yes"/>
      <point x="1620" y="790"/>
      <point x="1737" y="882"/>
      <point x="1797" y="1016" type="curve"/>
      <point x="1825" y="1016" type="line"/>
      <point x="1712" y="526" type="line"/>
      <point x="1684" y="526" type="line"/>
      <point x="1684" y="660"/>
      <point x="1620" y="762"/>
    </contour>
    <contour>
      <point x="1920" y="0" type="line"/>
      <point x="800" y="0" type="line"/>
      <point x="800" y="28" type="line"/>
      <point x="1480" y="28" type="line" smooth="yes"/>
      <point x="1754" y="28"/>
      <point x="1908" y="196"/>
      <point x="1996" y="450" type="curve"/>
      <point x="2024" y="450" type="line"/>
    </contour>
    <contour>
      <point x="1318" y="1500" type="line"/>
      <point x="1628" y="1500" type="line"/>
      <point x="1280" y="0" type="line"/>
      <point x="970" y="0" type="line"/>
    </contour>
    <contour>
      <point x="518" y="504" type="line"/>
      <point x="1110" y="504" type="line"/>
      <point x="1110" y="476" type="line"/>
      <point x="518" y="476" type="line"/>
    </contour>
    <contour>
      <point x="1298" y="1500" type="line"/>
      <point x="1332" y="1500" type="line"/>
      <point x="150" y="0" type="line"/>
      <point x="110" y="0" type="line"/>
    </contour>
    <contour>
      <point x="-50" y="28" type="line"/>
      <point x="390" y="28" type="line"/>
      <point x="390" y="0" type="line"/>
      <point x="-50" y="0" type="line"/>
    </contour>
  </outline>
</glyph>
<glyph name="multiply" format="2">
  <advance width="1059"/>
  <unicode hex="00D7"/>
  <outline>
    <contour>
      <point x="810" y="330" type="line"/>
      <point x="360" y="910" type="line"/>
      <point x="380" y="930" type="line"/>
      <point x="830" y="350" type="line"/>
    </contour>
    <contour>
      <point x="228" y="352" type="line"/>
      <point x="938" y="932" type="line"/>
      <point x="958" y="912" type="line"/>
      <point x="248" y="332" type="line"/>
    </contour>
  </outline>
</glyph>
<glyph name="ae" format="2">
  <advance width="1675"/>
  <unicode hex="00E6"/>
  <outline>
    <contour>
      <point x="548" y="516" type="curve" smooth="yes"/>
      <point x="716" y="516" type="line"/>
      <point x="716" y="488" type="line"/>
      <point x="608" y="488" type="line" smooth="yes"/>
      <point x="466" y="488"/>
      <point x="333" y="340"/>
      <point x="333" y="156" type="curve" smooth="yes"/>
      <point x="333" y="52"/>
      <point x="370" y="9"/>
      <point x="420" y="9" type="curve" smooth="yes"/>
      <point x="524" y="9"/>
      <point x="612" y="166"/>
      <point x="656" y="362" type="curve" smooth="yes"/>
      <point x="712" y="610" type="line" smooth="yes"/>
      <point x="740" y="738"/>
      <point x="736" y="909"/>
      <point x="586" y="909" type="curve" smooth="yes"/>
      <point x="504" y="909"/>
      <point x="409" y="880"/>
      <point x="369" y="843" type="curve"/>
      <point x="454" y="867"/>
      <point x="548" y="830"/>
      <point x="548" y="736" type="curve" smooth="yes"/>
      <point x="548" y="646"/>
      <point x="470" y="582"/>
      <point x="380" y="582" type="curve" smooth="yes"/>
      <point x="280" y="582"/>
      <point x="226" y="630"/>
      <point x="226" y="712" type="curve" smooth="yes"/>
      <point x="226" y="836"/>
      <point x="404" y="936"/>
      <point x="606" y="936" type="curve" smooth="yes"/>
      <point x="866" y="936"/>
      <point x="974" y="822"/>
      <point x="942" y="610" type="curve"/>
      <point x="866" y="362" type="line"/>
      <point x="820" y="114"/>
      <point x="602" y="-20"/>
      <point x="360" y="-20" type="curve" smooth="yes"/>
      <point x="182" y="-20"/>
      <point x="36" y="38"/>
      <point x="36" y="186" type="curve" smooth="yes"/>
      <point x="36" y="374"/>
      <point x="224" y="516"/>
    </contour>
    <contour>
      <point x="1396" y="758" type="curve" smooth="yes"/>
      <point x="1396" y="842"/>
      <point x="1379" y="915"/>
      <point x="1322" y="915" type="curve" smooth="yes"/>
      <point x="1194" y="915"/>
      <point x="1008" y="588"/>
      <point x="1008" y="260" type="curve" smooth="yes"/>
      <point x="1008" y="122"/>
      <point x="1050" y="27"/>
      <point x="1158" y="27" type="curve" smooth="yes"/>
      <point x="1298" y="27"/>
      <point x="1448" y="139"/>
      <point x="1542" y="286" type="curve"/>
      <point x="1568" y="286" type="line"/>
      <point x="1480" y="132"/>
      <point x="1310" y="-20"/>
      <point x="1058" y="-20" type="curve" smooth="yes"/>
      <point x="896" y="-20"/>
      <point x="750" y="80"/>
      <point x="750" y="320" type="curve"/>
      <point x="790" y="310" type="line"/>
      <point x="794" y="690"/>
      <point x="1052" y="940"/>
      <point x="1342" y="940" type="curve" smooth="yes"/>
      <point x="1506" y="940"/>
      <point x="1668" y="888"/>
      <point x="1668" y="734" type="curve" smooth="yes"/>
      <point x="1668" y="421"/>
      <point x="1132" y="414"/>
      <point x="990" y="414" type="curve"/>
      <point x="990" y="440" type="line"/>
      <point x="1128" y="440"/>
      <point x="1396" y="496"/>
    </contour>
  </outline>
</glyph>
<glyph name="divide" format="2">
  <advance width="1169"/>
  <unicode hex="00F7"/>
  <outline>
    <contour>
      <point x="188" y="804" type="line"/>
      <point x="1208" y="804" type="line"/>
      <point x="1208" y="776" type="line"/>
      <point x="188" y="776" type="line"/>
    </contour>
    <contour>
      <point x="440" y="400" type="curve" smooth="yes"/>
      <point x="440" y="499"/>
      <point x="521" y="580"/>
      <point x="620" y="580" type="curve" smooth="yes"/>
      <point x="719" y="580"/>
      <point x="800" y="499"/>
      <point x="800" y="400" type="curve" smooth="yes"/>
      <point x="800" y="301"/>
      <point x="719" y="220"/>
      <point x="620" y="220" type="curve" smooth="yes"/>
      <point x="521" y="220"/>
      <point x="440" y="301"/>
    </contour>
    <contour>
      <point x="600" y="1160" type="curve" smooth="yes"/>
      <point x="600" y="1259"/>
      <point x="681" y="1340"/>
      <point x="780" y="1340" type="curve" smooth="yes"/>
      <point x="879" y="1340"/>
      <point x="960" y="1259"/>
      <point x="960" y="1160" type="curve" smooth="yes"/>
      <point x="960" y="1061"/>
      <point x="879" y="980"/>
      <point x="780" y="980" type="curve" smooth="yes"/>
      <point x="681" y="980"/>
      <point x="600" y="1061"/>
    </contour>
  </outline>
</glyph>
<glyph name="thorn" format="2">
  <advance width="1222"/>
  <unicode hex="00FE"/>
  <outline>
    <contour>
      <point x="447" y="301" type="curve" smooth="yes"/>
      <point x="447" y="175"/>
      <point x="490" y="82"/>
      <point x="560" y="82" type="curve" smooth="yes"/>
      <point x="698" y="82"/>
      <point x="861" y="405"/>
      <point x="861" y="673" type="curve" smooth="yes"/>
      <point x="861" y="789"/>
      <point x="822" y="865"/>
      <point x="750" y="865" type="curve" smooth="yes"/>
      <point x="583" y="865"/>
      <point x="447" y="513"/>
    </contour>
    <contour>
      <point x="425" y="301" type="curve" smooth="yes"/>
      <point x="425" y="517"/>
      <point x="568" y="949"/>
      <point x="850" y="949" type="curve" smooth="yes"/>
      <point x="988" y="949"/>
      <point x="1169" y="869"/>
      <point x="1169" y="609" type="curve" smooth="yes"/>
      <point x="1169" y="209"/>
      <point x="854" y="-9"/>
      <point x="652" y="-9" type="curve" smooth="yes"/>
      <point x="500" y="-9"/>
      <point x="425" y="117"/>
    </contour>
    <contour>
      <point x="-170" y="-472" type="line"/>
      <point x="380" y="-472" type="line"/>
      <point x="380" y="-500" type="line"/>
      <point x="-170" y="-500" type="line"/>
    </contour>
    <contour>
      <point x="412" y="1472" type="line"/>
      <point x="276" y="1472" type="line"/>
      <point x="276" y="1500" type="line"/>
      <point x="700" y="1500" type="line"/>
      <point x="489" y="583" type="line"/>
      <point x="445" y="434" type="line"/>
      <point x="432" y="320" type="line"/>
      <point x="240" y="-500" type="line"/>
      <point x="-40" y="-500" type="line"/>
    </contour>
  </outline>
</glyph>
<glyph name="dotlessi" format="2">
  <advance width="1500"/>
  <unicode hex="0131"/>
  <outline>
    <contour>
      <point x="1420" y="668" type="line"/>
      <point x="1264" y="258"/>
      <point x="982" y="-41"/>
      <point x="588" y="-41" type="curve" smooth="yes"/>
      <point x="334" y="-41"/>
      <point x="205" y="53"/>
      <point x="205" y="299" type="curve" smooth="yes"/>
      <point x="205" y="319"/>
      <point x="207" y="364"/>
      <point x="213" y="389" type="curve" smooth="yes"/>
      <point x="557" y="1827" type="line"/>
      <point x="256" y="1827" type="line"/>
      <point x="256" y="1884" type="line"/>
      <point x="1145" y="1884" type="line"/>
      <point x="746" y="242" type="line" smooth="yes"/>
      <point x="742" y="217"/>
      <point x="737" y="188"/>
      <point x="737" y="168" type="curve" smooth="yes"/>
      <point x="737" y="123"/>
      <point x="758" y="86"/>
      <point x="811" y="86" type="curve" smooth="yes"/>
      <point x="1015" y="86"/>
      <point x="1253" y="373"/>
      <point x="1366" y="684" type="curve"/>
    </contour>
  </outline>
</glyph>
<glyph name="uni0213" format="2">
  <advance width="963"/>
  <unicode hex="0213"/>
  <outline>
    <contour>
      <point x="843" y="1070" type="line"/>
      <point x="858" y="1156"/>
      <point x="777" y="1198"/>
      <point x="669" y="1198" type="curve" smooth="yes"/>
      <point x="561" y="1198"/>
      <point x="443" y="1168"/>
      <point x="417" y="1070" type="curve"/>
      <point x="389" y="1070" type="line"/>
      <point x="409" y="1192"/>
      <point x="479" y="1388"/>
      <point x="689" y="1388" type="curve" smooth="yes"/>
      <point x="889" y="1388"/>
      <point x="889" y="1192"/>
      <point x="869" y="1070" type="curve"/>
    </contour>
    <component base="r"/>
  </outline>
</glyph>
<glyph name="uni0237" format="2">
  <advance width="1226"/>
  <unicode hex="0237"/>
  <outline>
    <contour>
      <point x="-666" y="-793" type="curve"/>
      <point x="-617" y="-899"/>
      <point x="-468" y="-1002"/>
      <point x="-294" y="-1002" type="curve" smooth="yes"/>
      <point x="96" y="-1002"/>
      <point x="69" y="-410"/>
      <point x="184" y="82" type="curve" smooth="yes"/>
      <point x="590" y="1827" type="line"/>
      <point x="217" y="1827" type="line"/>
      <point x="217" y="1884" type="line"/>
      <point x="1169" y="1884" type="line"/>
      <point x="768" y="-49" type="line" smooth="yes"/>
      <point x="662" y="-561"/>
      <point x="258" y="-1065"/>
      <point x="-274" y="-1065" type="curve" smooth="yes"/>
      <point x="-606" y="-1065"/>
      <point x="-840" y="-811"/>
      <point x="-840" y="-598" type="curve" smooth="yes"/>
      <point x="-840" y="-389"/>
      <point x="-668" y="-242"/>
      <point x="-484" y="-242" type="curve" smooth="yes"/>
      <point x="-320" y="-242"/>
      <point x="-172" y="-360"/>
      <point x="-172" y="-532" type="curve" smooth="yes"/>
      <point x="-172" y="-724"/>
      <point x="-334" y="-858"/>
      <point x="-518" y="-858" type="curve" smooth="yes"/>
      <point x="-578" y="-858"/>
      <point x="-633" y="-830"/>
    </contour>
  </outline>
</glyph>
<glyph name="caron" format="2">
  <advance width="869"/>
  <unicode hex="02C7"/>
  <outline>
    <contour>
      <point x="627" y="1450" type="line"/>
      <point x="988" y="1594" type="line"/>
      <point x="1002" y="1580" type="line"/>
      <point x="710" y="1310" type="line"/>
      <point x="540" y="1310" type="line"/>
      <point x="332" y="1580" type="line"/>
      <point x="346" y="1594" type="line"/>
    </contour>
  </outline>
</glyph>
<glyph name="ring" format="2">
  <advance width="639"/>
  <unicode hex="02DA"/>
  <outline>
    <contour>
      <point x="355" y="1360" type="curve" smooth="yes"/>
      <point x="355" y="1462"/>
      <point x="438" y="1540"/>
      <point x="560" y="1540" type="curve" smooth="yes"/>
      <point x="682" y="1540"/>
      <point x="765" y="1462"/>
      <point x="765" y="1360" type="curve" smooth="yes"/>
      <point x="765" y="1258"/>
      <point x="682" y="1180"/>
      <point x="560" y="1180" type="curve" smooth="yes"/>
      <point x="438" y="1180"/>
      <point x="355" y="1258"/>
    </contour>
    <contour>
      <point x="473" y="1291" type="curve" smooth="yes"/>
      <point x="473" y="1250"/>
      <point x="486" y="1208"/>
      <point x="540" y="1208" type="curve" smooth="yes"/>
      <point x="604" y="1208"/>
      <point x="647" y="1355"/>
      <point x="647" y="1429" type="curve" smooth="yes"/>
      <point x="647" y="1470"/>
      <point x="634" y="1512"/>
      <point x="580" y="1512" type="curve" smooth="yes"/>
      <point x="516" y="1512"/>
      <point x="473" y="1365"/>
    </contour>
  </outline>
</glyph>
<glyph name="ogonek" format="2">
  <advance width="2252"/>
  <unicode hex="02DB"/>
  <outline>
    <contour>
      <point x="1446" y="-463" type="line"/>
      <point x="1385" y="-578"/>
      <point x="1224" y="-803"/>
      <point x="872" y="-803" type="curve" smooth="yes"/>
      <point x="622" y="-803"/>
      <point x="406" y="-720"/>
      <point x="406" y="-494" type="curve" smooth="yes"/>
      <point x="406" y="-166"/>
      <point x="934" y="74"/>
      <point x="1266" y="176" type="curve"/>
      <point x="1278" y="145" type="line"/>
      <point x="1151" y="67"/>
      <point x="965" y="-152"/>
      <point x="965" y="-438" type="curve" smooth="yes"/>
      <point x="965" y="-598"/>
      <point x="1020" y="-678"/>
      <point x="1108" y="-678" type="curve" smooth="yes"/>
      <point x="1244" y="-678"/>
      <point x="1353" y="-532"/>
      <point x="1400" y="-442" type="curve"/>
    </contour>
  </outline>
</glyph>
<glyph name="tilde" format="2">
  <advance width="895"/>
  <unicode hex="02DC"/>
  <outline>
    <contour>
      <point x="465" y="1308" type="curve" smooth="yes"/>
      <point x="405" y="1308"/>
      <point x="358" y="1284"/>
      <point x="318" y="1200" type="curve"/>
      <point x="290" y="1200" type="line"/>
      <point x="330" y="1370"/>
      <point x="420" y="1484"/>
      <point x="548" y="1484" type="curve" smooth="yes"/>
      <point x="688" y="1484"/>
      <point x="771" y="1326"/>
      <point x="871" y="1326" type="curve" smooth="yes"/>
      <point x="931" y="1326"/>
      <point x="978" y="1350"/>
      <point x="1018" y="1434" type="curve"/>
      <point x="1046" y="1434" type="line"/>
      <point x="1006" y="1244"/>
      <point x="936" y="1150"/>
      <point x="808" y="1150" type="curve" smooth="yes"/>
      <point x="654" y="1150"/>
      <point x="579" y="1308"/>
    </contour>
  </outline>
</glyph>
<glyph name="pi" format="2">
  <advance width="1281"/>
  <unicode hex="03C0"/>
  <outline>
    <contour>
      <point x="198" y="-20" type="curve" smooth="yes"/>
      <point x="106" y="-20"/>
      <point x="50" y="36"/>
      <point x="50" y="106" type="curve" smooth="yes"/>
      <point x="50" y="312"/>
      <point x="326" y="189"/>
      <point x="440" y="578" type="curve" smooth="yes"/>
      <point x="534" y="900" type="line"/>
      <point x="646" y="900" type="line"/>
      <point x="536" y="486" type="line" smooth="yes"/>
      <point x="458" y="190"/>
      <point x="404" y="-20"/>
    </contour>
    <contour>
      <point x="1172" y="206" type="line"/>
      <point x="1116" y="66"/>
      <point x="1022" y="-20"/>
      <point x="866" y="-20" type="curve" smooth="yes"/>
      <point x="732" y="-20"/>
      <point x="640" y="82"/>
      <point x="672" y="212" type="curve" smooth="yes"/>
      <point x="832" y="840" type="line"/>
      <point x="1132" y="840" type="line"/>
      <point x="963" y="211" type="line" smooth="yes"/>
      <point x="943" y="137"/>
      <point x="975" y="116"/>
      <point x="1023" y="116" type="curve" smooth="yes"/>
      <point x="1074" y="116"/>
      <point x="1114" y="149"/>
      <point x="1152" y="218" type="curve"/>
    </contour>
    <contour>
      <point x="1312" y="920" type="line"/>
      <point x="1227" y="640" type="line"/>
      <point x="175" y="640" type="line"/>
      <point x="139" y="490" type="line"/>
      <point x="111" y="490" type="line"/>
      <point x="214" y="920" type="line"/>
    </contour>
  </outline>
</glyph>
<glyph name="uni2031" format="2">
  <advance width="8171"/>
  <unicode hex="2031"/>
  <outline>
    <contour>
      <point x="7078" y="-41" type="curve" smooth="yes"/>
      <point x="6656" y="-41"/>
      <point x="6361" y="151"/>
      <point x="6361" y="573" type="curve" smooth="yes"/>
      <point x="6361" y="1241"/>
      <point x="6860" y="1761"/>
      <point x="7446" y="1761" type="curve" smooth="yes"/>
      <point x="7868" y="1761"/>
      <point x="8164" y="1569"/>
      <point x="8164" y="1147" type="curve" smooth="yes"/>
      <point x="8164" y="479"/>
      <point x="7664" y="-41"/>
    </contour>
    <contour>
      <point x="7467" y="1706" type="curve" smooth="yes"/>
      <point x="7225" y="1706"/>
      <point x="6914" y="782"/>
      <point x="6914" y="344" type="curve" smooth="yes"/>
      <point x="6914" y="164"/>
      <point x="6960" y="16"/>
      <point x="7058" y="16" type="curve" smooth="yes"/>
      <point x="7300" y="16"/>
      <point x="7600" y="936"/>
      <point x="7600" y="1374" type="curve" smooth="yes"/>
      <point x="7600" y="1554"/>
      <point x="7565" y="1706"/>
    </contour>
    <contour>
      <point x="5018" y="-41" type="curve" smooth="yes"/>
      <point x="4596" y="-41"/>
      <point x="4301" y="151"/>
      <point x="4301" y="573" type="curve" smooth="yes"/>
      <point x="4301" y="1241"/>
      <point x="4800" y="1761"/>
      <point x="5386" y="1761" type="curve" smooth="yes"/>
      <point x="5808" y="1761"/>
      <point x="6103" y="1569"/>
      <point x="6103" y="1147" type="curve" smooth="yes"/>
      <point x="6103" y="479"/>
      <point x="5604" y="-41"/>
    </contour>
    <contour>
      <point x="5407" y="1706" type="curve" smooth="yes"/>
      <point x="5165" y="1706"/>
      <point x="4854" y="782"/>
      <point x="4854" y="344" type="curve" smooth="yes"/>
      <point x="4854" y="164"/>
      <point x="4899" y="16"/>
      <point x="4997" y="16" type="curve" smooth="yes"/>
      <point x="5239" y="16"/>
      <point x="5540" y="936"/>
      <point x="5540" y="1374" type="curve" smooth="yes"/>
      <point x="5540" y="1554"/>
      <point x="5505" y="1706"/>
    </contour>
    <contour>
      <point x="2990" y="-41" type="curve" smooth="yes"/>
      <point x="2568" y="-41"/>
      <point x="2274" y="151"/>
      <point x="2274" y="573" type="curve" smooth="yes"/>
      <point x="2274" y="1241"/>
      <point x="2773" y="1761"/>
      <point x="3359" y="1761" type="curve" smooth="yes"/>
      <point x="3781" y="1761"/>
      <point x="4076" y="1569"/>
      <point x="4076" y="1147" type="curve" smooth="yes"/>
      <point x="4076" y="479"/>
      <point x="3576" y="-41"/>
    </contour>
    <contour>
      <point x="3380" y="1706" type="curve" smooth="yes"/>
      <point x="3138" y="1706"/>
      <point x="2826" y="782"/>
      <point x="2826" y="344" type="curve" smooth="yes"/>
      <point x="2826" y="164"/>
      <point x="2872" y="16"/>
      <point x="2970" y="16" type="curve" smooth="yes"/>
      <point x="3212" y="16"/>
      <point x="3512" y="936"/>
      <point x="3512" y="1374" type="curve" smooth="yes"/>
      <point x="3512" y="1554"/>
      <point x="3478" y="1706"/>
    </contour>
    <contour>
      <point x="3592" y="3072" type="line"/>
      <point x="3666" y="3072" type="line"/>
      <point x="864" y="0" type="line"/>
      <point x="791" y="0" type="line"/>
    </contour>
    <contour>
      <point x="1126" y="1311" type="curve" smooth="yes"/>
      <point x="704" y="1311"/>
      <point x="410" y="1503"/>
      <point x="410" y="1925" type="curve" smooth="yes"/>
      <point x="410" y="2593"/>
      <point x="909" y="3113"/>
      <point x="1495" y="3113" type="curve" smooth="yes"/>
      <point x="1917" y="3113"/>
      <point x="2212" y="2921"/>
      <point x="2212" y="2499" type="curve" smooth="yes"/>
      <point x="2212" y="1831"/>
      <point x="1712" y="1311"/>
    </contour>
    <contour>
      <point x="1516" y="3056" type="curve" smooth="yes"/>
      <point x="1274" y="3056"/>
      <point x="963" y="2134"/>
      <point x="963" y="1696" type="curve" smooth="yes"/>
      <point x="963" y="1516"/>
      <point x="1008" y="1368"/>
      <point x="1106" y="1368" type="curve" smooth="yes"/>
      <point x="1348" y="1368"/>
      <point x="1648" y="2300"/>
      <point x="1648" y="2738" type="curve" smooth="yes"/>
      <point x="1648" y="2918"/>
      <point x="1614" y="3056"/>
    </contour>
  </outline>
</glyph>
<glyph name="uni203D" format="2">
  <advance width="2457"/>
  <unicode hex="203D"/>
  <outline>
    <contour>
      <point x="1794" y="2228" type="curve" smooth="yes"/>
      <point x="1720" y="1792"/>
      <point x="1335" y="1610"/>
      <point x="1171" y="996" type="curve"/>
      <point x="1114" y="996" type="line"/>
      <point x="1237" y="1610"/>
      <point x="1188" y="1774"/>
      <point x="1188" y="2085" type="curve" smooth="yes"/>
      <point x="1188" y="2355"/>
      <point x="1270" y="2552"/>
      <point x="1512" y="2552" type="curve" smooth="yes"/>
      <point x="1696" y="2552"/>
      <point x="1827" y="2416"/>
    </contour>
    <contour>
      <point x="2064" y="2499" type="curve" smooth="yes"/>
      <point x="2064" y="2802"/>
      <point x="1946" y="3052"/>
      <point x="1560" y="3052" type="curve" smooth="yes"/>
      <point x="1099" y="3052"/>
      <point x="702" y="2754"/>
      <point x="616" y="2554" type="curve"/>
      <point x="659" y="2586"/>
      <point x="746" y="2626"/>
      <point x="820" y="2626" type="curve" smooth="yes"/>
      <point x="960" y="2626"/>
      <point x="1102" y="2518"/>
      <point x="1102" y="2324" type="curve" smooth="yes"/>
      <point x="1102" y="2098"/>
      <point x="909" y="2003"/>
      <point x="766" y="2003" type="curve" smooth="yes"/>
      <point x="602" y="2003"/>
      <point x="471" y="2130"/>
      <point x="471" y="2339" type="curve" smooth="yes"/>
      <point x="471" y="2716"/>
      <point x="1020" y="3113"/>
      <point x="1602" y="3113" type="curve" smooth="yes"/>
      <point x="2138" y="3113"/>
      <point x="2642" y="2929"/>
      <point x="2642" y="2417" type="curve" smooth="yes"/>
      <point x="2642" y="1803"/>
      <point x="1915" y="1372"/>
      <point x="1237" y="1372" type="curve"/>
      <point x="1237" y="1411" type="line"/>
      <point x="1693" y="1538"/>
      <point x="2064" y="1995"/>
    </contour>
    <component base="period" xOffset="549"/>
  </outline>
</glyph>
<glyph name="Euro" format="2">
  <advance width="1529"/>
  <unicode hex="20AC"/>
  <outline>
    <contour>
      <point x="1524" y="1311" type="curve"/>
      <point x="1503" y="1368"/>
      <point x="1392" y="1490"/>
      <point x="1209" y="1490" type="curve" smooth="yes"/>
      <point x="831" y="1490"/>
      <point x="618" y="868"/>
      <point x="618" y="410" type="curve" smooth="yes"/>
      <point x="618" y="182"/>
      <point x="712" y="17"/>
      <point x="890" y="17" type="curve" smooth="yes"/>
      <point x="1075" y="17"/>
      <point x="1285" y="179"/>
      <point x="1356" y="356" type="curve"/>
      <point x="1386" y="356" type="line"/>
      <point x="1314" y="162"/>
      <point x="1088" y="-20"/>
      <point x="846" y="-20" type="curve" smooth="yes"/>
      <point x="584" y="-20"/>
      <point x="288" y="140"/>
      <point x="288" y="550" type="curve" smooth="yes"/>
      <point x="288" y="1100"/>
      <point x="706" y="1520"/>
      <point x="1188" y="1520" type="curve" smooth="yes"/>
      <point x="1432" y="1520"/>
      <point x="1600" y="1336"/>
      <point x="1600" y="1202" type="curve" smooth="yes"/>
      <point x="1600" y="1090"/>
      <point x="1516" y="1028"/>
      <point x="1436" y="1028" type="curve" smooth="yes"/>
      <point x="1366" y="1028"/>
      <point x="1272" y="1080"/>
      <point x="1272" y="1190" type="curve" smooth="yes"/>
      <point x="1272" y="1290"/>
      <point x="1361" y="1350"/>
      <point x="1439" y="1350" type="curve" smooth="yes"/>
      <point x="1478" y="1350"/>
      <point x="1511" y="1328"/>
    </contour>
    <component base="equal" xOffset="-60" yOffset="-140"/>
  </outline>
</glyph>
<glyph name="uni2116" format="2">
  <advance width="2291"/>
  <unicode hex="2116"/>
  <outline>
    <contour>
      <point x="1668" y="644" type="line"/>
      <point x="2178" y="644" type="line"/>
      <point x="2176" y="616" type="line"/>
      <point x="1666" y="616" type="line"/>
    </contour>
    <contour>
      <point x="2127" y="1520" type="curve" smooth="yes"/>
      <point x="2304" y="1520"/>
      <point x="2422" y="1430"/>
      <point x="2422" y="1254" type="curve" smooth="yes"/>
      <point x="2422" y="941"/>
      <point x="2186" y="760"/>
      <point x="1952" y="760" type="curve" smooth="yes"/>
      <point x="1775" y="760"/>
      <point x="1657" y="850"/>
      <point x="1657" y="1026" type="curve" smooth="yes"/>
      <point x="1657" y="1339"/>
      <point x="1893" y="1520"/>
    </contour>
    <contour>
      <point x="1870" y="926" type="curve" smooth="yes"/>
      <point x="1870" y="828"/>
      <point x="1900" y="788"/>
      <point x="1961" y="788" type="curve" smooth="yes"/>
      <point x="2085" y="788"/>
      <point x="2209" y="1124"/>
      <point x="2209" y="1354" type="curve" smooth="yes"/>
      <point x="2209" y="1452"/>
      <point x="2179" y="1492"/>
      <point x="2118" y="1492" type="curve" smooth="yes"/>
      <point x="1994" y="1492"/>
      <point x="1870" y="1156"/>
    </contour>
    <component base="N" xOffset="52"/>
  </outline>
</glyph>
<glyph name="uniFB00" format="2">
  <advance width="1449"/>
  <unicode hex="FB00"/>
  <outline>
    <contour>
      <point x="138" y="920" type="line"/>
      <point x="1488" y="920" type="line"/>
      <point x="1488" y="892" type="line"/>
      <point x="138" y="892" type="line"/>
    </contour>
    <contour>
      <point x="1689" y="1396" type="curve"/>
      <point x="1669" y="1437"/>
      <point x="1604" y="1490"/>
      <point x="1503" y="1490" type="curve" smooth="yes"/>
      <point x="1363" y="1490"/>
      <point x="1271" y="1324"/>
      <point x="1228" y="1080" type="curve" smooth="yes"/>
      <point x="1051" y="76" type="line" smooth="yes"/>
      <point x="994" y="-244"/>
      <point x="778" y="-420"/>
      <point x="508" y="-420" type="curve" smooth="yes"/>
      <point x="306" y="-420"/>
      <point x="208" y="-296"/>
      <point x="208" y="-192" type="curve" smooth="yes"/>
      <point x="208" y="-90"/>
      <point x="271" y="-28"/>
      <point x="361" y="-28" type="curve" smooth="yes"/>
      <point x="441" y="-28"/>
      <point x="524" y="-76"/>
      <point x="524" y="-176" type="curve" smooth="yes"/>
      <point x="524" y="-276"/>
      <point x="448" y="-331"/>
      <point x="366" y="-331" type="curve" smooth="yes"/>
      <point x="330" y="-331"/>
      <point x="298" y="-314"/>
      <point x="289" y="-296" type="curve"/>
      <point x="309" y="-337"/>
      <point x="374" y="-390"/>
      <point x="485" y="-390" type="curve" smooth="yes"/>
      <point x="635" y="-390"/>
      <point x="728" y="-224"/>
      <point x="770" y="20" type="curve" smooth="yes"/>
      <point x="944" y="1024" type="line" smooth="yes"/>
      <point x="1000" y="1344"/>
      <point x="1220" y="1520"/>
      <point x="1480" y="1520" type="curve" smooth="yes"/>
      <point x="1672" y="1520"/>
      <point x="1770" y="1396"/>
      <point x="1770" y="1292" type="curve" smooth="yes"/>
      <point x="1770" y="1190"/>
      <point x="1707" y="1128"/>
      <point x="1617" y="1128" type="curve" smooth="yes"/>
      <point x="1537" y="1128"/>
      <point x="1454" y="1176"/>
      <point x="1454" y="1276" type="curve" smooth="yes"/>
      <point x="1454" y="1376"/>
      <point x="1530" y="1431"/>
      <point x="1612" y="1431" type="curve" smooth="yes"/>
      <point x="1647" y="1431"/>
      <point x="1676" y="1414"/>
    </contour>
    <contour>
      <point x="1069" y="1296" type="curve"/>
      <point x="1049" y="1337"/>
      <point x="984" y="1390"/>
      <point x="873" y="1390" type="curve" smooth="yes"/>
      <point x="723" y="1390"/>
      <point x="637" y="1256"/>
      <point x="594" y="1012" type="curve" smooth="yes"/>
      <point x="411" y="-24" type="line" smooth="yes"/>
      <point x="354" y="-344"/>
      <point x="138" y="-520"/>
      <point x="-122" y="-520" type="curve" smooth="yes"/>
      <point x="-314" y="-520"/>
      <point x="-412" y="-396"/>
      <point x="-412" y="-292" type="curve" smooth="yes"/>
      <point x="-412" y="-190"/>
      <point x="-349" y="-128"/>
      <point x="-259" y="-128" type="curve" smooth="yes"/>
      <point x="-179" y="-128"/>
      <point x="-96" y="-176"/>
      <point x="-96" y="-276" type="curve" smooth="yes"/>
      <point x="-96" y="-376"/>
      <point x="-172" y="-431"/>
      <point x="-254" y="-431" type="curve" smooth="yes"/>
      <point x="-290" y="-431"/>
      <point x="-322" y="-414"/>
      <point x="-331" y="-396" type="curve"/>
      <point x="-311" y="-437"/>
      <point x="-246" y="-490"/>
      <point x="-145" y="-490" type="curve" smooth="yes"/>
      <point x="-5" y="-490"/>
      <point x="88" y="-324"/>
      <point x="130" y="-80" type="curve" smooth="yes"/>
      <point x="304" y="924" type="line" smooth="yes"/>
      <point x="360" y="1244"/>
      <point x="580" y="1420"/>
      <point x="850" y="1420" type="curve" smooth="yes"/>
      <point x="1052" y="1420"/>
      <point x="1150" y="1296"/>
      <point x="1150" y="1192" type="curve" smooth="yes"/>
      <point x="1150" y="1090"/>
      <point x="1087" y="1028"/>
      <point x="997" y="1028" type="curve" smooth="yes"/>
      <point x="917" y="1028"/>
      <point x="834" y="1076"/>
      <point x="834" y="1176" type="curve" smooth="yes"/>
      <point x="834" y="1276"/>
      <point x="910" y="1331"/>
      <point x="992" y="1331" type="curve" smooth="yes"/>
      <point x="1027" y="1331"/>
      <point x="1056" y="1314"/>
    </contour>
  </outline>
</glyph>
<glyph name="uniFB01" format="2">
  <advance width="1376"/>
  <unicode hex="FB01"/>
  <outline>
    <contour>
      <point x="1337" y="326" type="line"/>
      <point x="1261" y="126"/>
      <point x="1123" y="-20"/>
      <point x="931" y="-20" type="curve" smooth="yes"/>
      <point x="807" y="-20"/>
      <point x="744" y="26"/>
      <point x="744" y="146" type="curve" smooth="yes"/>
      <point x="744" y="156"/>
      <point x="745" y="178"/>
      <point x="748" y="190" type="curve" smooth="yes"/>
      <point x="916" y="892" type="line"/>
      <point x="138" y="892" type="line"/>
      <point x="138" y="920" type="line"/>
      <point x="1203" y="920" type="line"/>
      <point x="1008" y="118" type="line" smooth="yes"/>
      <point x="1006" y="106"/>
      <point x="1004" y="92"/>
      <point x="1004" y="82" type="curve" smooth="yes"/>
      <point x="1004" y="60"/>
      <point x="1014" y="42"/>
      <point x="1040" y="42" type="curve" smooth="yes"/>
      <point x="1140" y="42"/>
      <point x="1256" y="182"/>
      <point x="1311" y="334" type="curve"/>
    </contour>
    <contour>
      <point x="1159" y="1396" type="curve"/>
      <point x="1137" y="1441"/>
      <point x="1071" y="1490"/>
      <point x="943" y="1490" type="curve" smooth="yes"/>
      <point x="769" y="1490"/>
      <point x="652" y="1327"/>
      <point x="608" y="1080" type="curve" smooth="yes"/>
      <point x="411" y="-24" type="line" smooth="yes"/>
      <point x="354" y="-343"/>
      <point x="138" y="-520"/>
      <point x="-122" y="-520" type="curve" smooth="yes"/>
      <point x="-314" y="-520"/>
      <point x="-412" y="-396"/>
      <point x="-412" y="-292" type="curve" smooth="yes"/>
      <point x="-412" y="-190"/>
      <point x="-349" y="-128"/>
      <point x="-259" y="-128" type="curve" smooth="yes"/>
      <point x="-179" y="-128"/>
      <point x="-96" y="-176"/>
      <point x="-96" y="-276" type="curve" smooth="yes"/>
      <point x="-96" y="-376"/>
      <point x="-172" y="-431"/>
      <point x="-254" y="-431" type="curve" smooth="yes"/>
      <point x="-290" y="-431"/>
      <point x="-322" y="-414"/>
      <point x="-331" y="-396" type="curve"/>
      <point x="-311" y="-437"/>
      <point x="-246" y="-490"/>
      <point x="-145" y="-490" type="curve" smooth="yes"/>
      <point x="-5" y="-490"/>
      <point x="88" y="-324"/>
      <point x="130" y="-80" type="curve" smooth="yes"/>
      <point x="324" y="1024" type="line" smooth="yes"/>
      <point x="380" y="1344"/>
      <point x="620" y="1520"/>
      <point x="920" y="1520" type="curve" smooth="yes"/>
      <point x="1147" y="1520"/>
      <point x="1240" y="1400"/>
      <point x="1240" y="1292" type="curve" smooth="yes"/>
      <point x="1240" y="1190"/>
      <point x="1177" y="1128"/>
      <point x="1087" y="1128" type="curve" smooth="yes"/>
      <point x="1007" y="1128"/>
      <point x="924" y="1176"/>
      <point x="924" y="1276" type="curve" smooth="yes"/>
      <point x="924" y="1376"/>
      <point x="1000" y="1431"/>
      <point x="1082" y="1431" type="curve" smooth="yes"/>
      <point x="1116" y="1431"/>
      <point x="1148" y="1414"/>
    </contour>
  </outline>
</glyph>
<glyph name="uniFB02" format="2">
  <advance width="1457"/>
  <unicode hex="FB02"/>
  <outline>
    <contour>
      <point x="1418" y="326" type="line"/>
      <point x="1342" y="126"/>
      <point x="1204" y="-20"/>
      <point x="1012" y="-20" type="curve" smooth="yes"/>
      <point x="888" y="-20"/>
      <point x="825" y="26"/>
      <point x="825" y="146" type="curve" smooth="yes"/>
      <point x="825" y="156"/>
      <point x="827" y="178"/>
      <point x="829" y="190" type="curve" smooth="yes"/>
      <point x="1120" y="1460" type="line"/>
      <point x="1418" y="1540" type="line"/>
      <point x="1089" y="118" type="line" smooth="yes"/>
      <point x="1087" y="106"/>
      <point x="1085" y="92"/>
      <point x="1085" y="82" type="curve" smooth="yes"/>
      <point x="1085" y="60"/>
      <point x="1095" y="42"/>
      <point x="1121" y="42" type="curve" smooth="yes"/>
      <point x="1221" y="42"/>
      <point x="1338" y="184"/>
      <point x="1392" y="334" type="curve"/>
    </contour>
    <contour>
      <point x="138" y="920" type="line"/>
      <point x="868" y="920" type="line"/>
      <point x="868" y="892" type="line"/>
      <point x="138" y="892" type="line"/>
    </contour>
    <contour>
      <point x="1210" y="1292" type="curve" smooth="yes"/>
      <point x="1210" y="1190"/>
      <point x="1147" y="1128"/>
      <point x="1057" y="1128" type="curve" smooth="yes"/>
      <point x="977" y="1128"/>
      <point x="894" y="1176"/>
      <point x="894" y="1276" type="curve" smooth="yes"/>
      <point x="894" y="1376"/>
      <point x="970" y="1431"/>
      <point x="1052" y="1431" type="curve" smooth="yes"/>
      <point x="1086" y="1431"/>
      <point x="1118" y="1414"/>
      <point x="1129" y="1396" type="curve"/>
      <point x="1109" y="1437"/>
      <point x="1042" y="1490"/>
      <point x="937" y="1490" type="curve" smooth="yes"/>
      <point x="780" y="1490"/>
      <point x="651" y="1324"/>
      <point x="608" y="1080" type="curve" smooth="yes"/>
      <point x="411" y="-24" type="line" smooth="yes"/>
      <point x="354" y="-343"/>
      <point x="138" y="-520"/>
      <point x="-122" y="-520" type="curve" smooth="yes"/>
      <point x="-314" y="-520"/>
      <point x="-412" y="-396"/>
      <point x="-412" y="-292" type="curve" smooth="yes"/>
      <point x="-412" y="-190"/>
      <point x="-349" y="-128"/>
      <point x="-259" y="-128" type="curve" smooth="yes"/>
      <point x="-179" y="-128"/>
      <point x="-96" y="-176"/>
      <point x="-96" y="-276" type="curve" smooth="yes"/>
      <point x="-96" y="-376"/>
      <point x="-172" y="-431"/>
      <point x="-254" y="-431" type="curve" smooth="yes"/>
      <point x="-290" y="-431"/>
      <point x="-322" y="-414"/>
      <point x="-331" y="-396" type="curve"/>
      <point x="-311" y="-437"/>
      <point x="-246" y="-490"/>
      <point x="-145" y="-490" type="curve" smooth="yes"/>
      <point x="-5" y="-490"/>
      <point x="88" y="-324"/>
      <point x="130" y="-80" type="curve" smooth="yes"/>
      <point x="324" y="1024" type="line" smooth="yes"/>
      <point x="381" y="1350"/>
      <point x="636" y="1520"/>
      <point x="920" y="1520" type="curve" smooth="yes"/>
      <point x="1110" y="1520"/>
      <point x="1210" y="1401"/>
    </contour>
  </outline>
</glyph>
<glyph name="uniFB03" format="2">
  <advance width="1996"/>
  <unicode hex="FB03"/>
  <outline>
    <contour>
      <point x="1957" y="326" type="line"/>
      <point x="1881" y="126"/>
      <point x="1743" y="-20"/>
      <point x="1551" y="-20" type="curve" smooth="yes"/>
      <point x="1427" y="-20"/>
      <point x="1364" y="26"/>
      <point x="1364" y="146" type="curve" smooth="yes"/>
      <point x="1364" y="156"/>
      <point x="1365" y="178"/>
      <point x="1368" y="190" type="curve" smooth="yes"/>
      <point x="1536" y="892" type="line"/>
      <point x="138" y="892" type="line"/>
      <point x="138" y="920" type="line"/>
      <point x="1823" y="920" type="line"/>
      <point x="1628" y="118" type="line" smooth="yes"/>
      <point x="1626" y="106"/>
      <point x="1624" y="92"/>
      <point x="1624" y="82" type="curve" smooth="yes"/>
      <point x="1624" y="60"/>
      <point x="1634" y="42"/>
      <point x="1660" y="42" type="curve" smooth="yes"/>
      <point x="1760" y="42"/>
      <point x="1876" y="182"/>
      <point x="1931" y="334" type="curve"/>
    </contour>
    <contour>
      <point x="1860" y="1292" type="curve" smooth="yes"/>
      <point x="1860" y="1190"/>
      <point x="1797" y="1128"/>
      <point x="1707" y="1128" type="curve" smooth="yes"/>
      <point x="1627" y="1128"/>
      <point x="1544" y="1176"/>
      <point x="1544" y="1276" type="curve" smooth="yes"/>
      <point x="1544" y="1376"/>
      <point x="1620" y="1431"/>
      <point x="1702" y="1431" type="curve" smooth="yes"/>
      <point x="1736" y="1431"/>
      <point x="1768" y="1414"/>
      <point x="1779" y="1396" type="curve"/>
      <point x="1757" y="1441"/>
      <point x="1691" y="1490"/>
      <point x="1563" y="1490" type="curve" smooth="yes"/>
      <point x="1389" y="1490"/>
      <point x="1272" y="1327"/>
      <point x="1228" y="1080" type="curve" smooth="yes"/>
      <point x="1051" y="76" type="line" smooth="yes"/>
      <point x="995" y="-243"/>
      <point x="778" y="-420"/>
      <point x="508" y="-420" type="curve" smooth="yes"/>
      <point x="306" y="-420"/>
      <point x="208" y="-296"/>
      <point x="208" y="-192" type="curve" smooth="yes"/>
      <point x="208" y="-90"/>
      <point x="271" y="-28"/>
      <point x="361" y="-28" type="curve" smooth="yes"/>
      <point x="441" y="-28"/>
      <point x="524" y="-76"/>
      <point x="524" y="-176" type="curve" smooth="yes"/>
      <point x="524" y="-276"/>
      <point x="449" y="-331"/>
      <point x="367" y="-331" type="curve" smooth="yes"/>
      <point x="331" y="-331"/>
      <point x="299" y="-314"/>
      <point x="290" y="-296" type="curve"/>
      <point x="310" y="-337"/>
      <point x="374" y="-390"/>
      <point x="485" y="-390" type="curve" smooth="yes"/>
      <point x="635" y="-390"/>
      <point x="728" y="-224"/>
      <point x="770" y="20" type="curve" smooth="yes"/>
      <point x="944" y="1024" type="line" smooth="yes"/>
      <point x="1000" y="1344"/>
      <point x="1240" y="1520"/>
      <point x="1540" y="1520" type="curve" smooth="yes"/>
      <point x="1763" y="1520"/>
      <point x="1860" y="1398"/>
    </contour>
    <contour>
      <point x="1069" y="1296" type="curve"/>
      <point x="1049" y="1337"/>
      <point x="984" y="1390"/>
      <point x="873" y="1390" type="curve" smooth="yes"/>
      <point x="723" y="1390"/>
      <point x="637" y="1256"/>
      <point x="594" y="1012" type="curve" smooth="yes"/>
      <point x="411" y="-24" type="line" smooth="yes"/>
      <point x="354" y="-344"/>
      <point x="138" y="-520"/>
      <point x="-122" y="-520" type="curve" smooth="yes"/>
      <point x="-314" y="-520"/>
      <point x="-412" y="-396"/>
      <point x="-412" y="-292" type="curve" smooth="yes"/>
      <point x="-412" y="-190"/>
      <point x="-349" y="-128"/>
      <point x="-259" y="-128" type="curve" smooth="yes"/>
      <point x="-179" y="-128"/>
      <point x="-96" y="-176"/>
      <point x="-96" y="-276" type="curve" smooth="yes"/>
      <point x="-96" y="-376"/>
      <point x="-172" y="-431"/>
      <point x="-254" y="-431" type="curve" smooth="yes"/>
      <point x="-290" y="-431"/>
      <point x="-322" y="-414"/>
      <point x="-331" y="-396" type="curve"/>
      <point x="-311" y="-437"/>
      <point x="-246" y="-490"/>
      <point x="-145" y="-490" type="curve" smooth="yes"/>
      <point x="-5" y="-490"/>
      <point x="88" y="-324"/>
      <point x="130" y="-80" type="curve" smooth="yes"/>
      <point x="304" y="924" type="line" smooth="yes"/>
      <point x="360" y="1244"/>
      <point x="580" y="1420"/>
      <point x="850" y="1420" type="curve" smooth="yes"/>
      <point x="1052" y="1420"/>
      <point x="1150" y="1296"/>
      <point x="1150" y="1192" type="curve" smooth="yes"/>
      <point x="1150" y="1090"/>
      <point x="1087" y="1028"/>
      <point x="997" y="1028" type="curve" smooth="yes"/>
      <point x="917" y="1028"/>
      <point x="834" y="1076"/>
      <point x="834" y="1176" type="curve" smooth="yes"/>
      <point x="834" y="1276"/>
      <point x="910" y="1331"/>
      <point x="992" y="1331" type="curve" smooth="yes"/>
      <point x="1028" y="1331"/>
      <point x="1056" y="1314"/>
    </contour>
  </outline>
</glyph>
<glyph name="uniFB04" format="2">
  <advance width="4255"/>
  <unicode hex="FB04"/>
  <outline>
    <contour>
      <point x="4174" y="668" type="line"/>
      <point x="4018" y="258"/>
      <point x="3736" y="-41"/>
      <point x="3342" y="-41" type="curve" smooth="yes"/>
      <point x="3088" y="-41"/>
      <point x="2959" y="53"/>
      <point x="2959" y="299" type="curve" smooth="yes"/>
      <point x="2959" y="319"/>
      <point x="2964" y="364"/>
      <point x="2968" y="389" type="curve" smooth="yes"/>
      <point x="3564" y="2990" type="line"/>
      <point x="4174" y="3154" type="line"/>
      <point x="3500" y="242" type="line" smooth="yes"/>
      <point x="3496" y="217"/>
      <point x="3492" y="188"/>
      <point x="3492" y="168" type="curve" smooth="yes"/>
      <point x="3492" y="123"/>
      <point x="3513" y="86"/>
      <point x="3566" y="86" type="curve" smooth="yes"/>
      <point x="3770" y="86"/>
      <point x="4009" y="377"/>
      <point x="4120" y="684" type="curve"/>
    </contour>
    <contour>
      <point x="282" y="1884" type="line"/>
      <point x="3048" y="1884" type="line"/>
      <point x="3048" y="1827" type="line"/>
      <point x="282" y="1827" type="line"/>
    </contour>
    <contour>
      <point x="3582" y="2859" type="curve"/>
      <point x="3541" y="2943"/>
      <point x="3404" y="3052"/>
      <point x="3189" y="3052" type="curve" smooth="yes"/>
      <point x="2867" y="3052"/>
      <point x="2603" y="2712"/>
      <point x="2515" y="2212" type="curve" smooth="yes"/>
      <point x="2152" y="156" type="line" smooth="yes"/>
      <point x="2036" y="-500"/>
      <point x="1596" y="-860"/>
      <point x="1044" y="-860" type="curve" smooth="yes"/>
      <point x="630" y="-860"/>
      <point x="430" y="-607"/>
      <point x="430" y="-394" type="curve" smooth="yes"/>
      <point x="430" y="-185"/>
      <point x="560" y="-58"/>
      <point x="744" y="-58" type="curve" smooth="yes"/>
      <point x="908" y="-58"/>
      <point x="1077" y="-155"/>
      <point x="1077" y="-360" type="curve" smooth="yes"/>
      <point x="1077" y="-565"/>
      <point x="922" y="-678"/>
      <point x="754" y="-678" type="curve" smooth="yes"/>
      <point x="680" y="-678"/>
      <point x="614" y="-643"/>
      <point x="596" y="-606" type="curve"/>
      <point x="637" y="-690"/>
      <point x="770" y="-799"/>
      <point x="998" y="-799" type="curve" smooth="yes"/>
      <point x="1306" y="-799"/>
      <point x="1495" y="-459"/>
      <point x="1581" y="41" type="curve" smooth="yes"/>
      <point x="1934" y="2097" type="line" smooth="yes"/>
      <point x="2050" y="2765"/>
      <point x="2572" y="3113"/>
      <point x="3154" y="3113" type="curve" smooth="yes"/>
      <point x="3568" y="3113"/>
      <point x="3748" y="2859"/>
      <point x="3748" y="2646" type="curve" smooth="yes"/>
      <point x="3748" y="2437"/>
      <point x="3618" y="2310"/>
      <point x="3434" y="2310" type="curve" smooth="yes"/>
      <point x="3270" y="2310"/>
      <point x="3101" y="2409"/>
      <point x="3101" y="2614" type="curve" smooth="yes"/>
      <point x="3101" y="2819"/>
      <point x="3256" y="2930"/>
      <point x="3424" y="2930" type="curve" smooth="yes"/>
      <point x="3496" y="2930"/>
      <point x="3558" y="2896"/>
    </contour>
    <contour>
      <point x="2190" y="2654" type="curve"/>
      <point x="2149" y="2738"/>
      <point x="2016" y="2847"/>
      <point x="1788" y="2847" type="curve" smooth="yes"/>
      <point x="1480" y="2847"/>
      <point x="1304" y="2572"/>
      <point x="1216" y="2072" type="curve" smooth="yes"/>
      <point x="842" y="-49" type="line" smooth="yes"/>
      <point x="726" y="-705"/>
      <point x="282" y="-1065"/>
      <point x="-250" y="-1065" type="curve" smooth="yes"/>
      <point x="-644" y="-1065"/>
      <point x="-844" y="-811"/>
      <point x="-844" y="-598" type="curve" smooth="yes"/>
      <point x="-844" y="-389"/>
      <point x="-714" y="-262"/>
      <point x="-530" y="-262" type="curve" smooth="yes"/>
      <point x="-366" y="-262"/>
      <point x="-196" y="-361"/>
      <point x="-196" y="-566" type="curve" smooth="yes"/>
      <point x="-196" y="-771"/>
      <point x="-352" y="-882"/>
      <point x="-520" y="-882" type="curve" smooth="yes"/>
      <point x="-594" y="-882"/>
      <point x="-660" y="-848"/>
      <point x="-678" y="-811" type="curve"/>
      <point x="-637" y="-895"/>
      <point x="-504" y="-1004"/>
      <point x="-297" y="-1004" type="curve" smooth="yes"/>
      <point x="-10" y="-1004"/>
      <point x="180" y="-664"/>
      <point x="266" y="-164" type="curve" smooth="yes"/>
      <point x="622" y="1892" type="line" smooth="yes"/>
      <point x="736" y="2548"/>
      <point x="1189" y="2908"/>
      <point x="1741" y="2908" type="curve" smooth="yes"/>
      <point x="2155" y="2908"/>
      <point x="2355" y="2655"/>
      <point x="2355" y="2442" type="curve" smooth="yes"/>
      <point x="2355" y="2233"/>
      <point x="2226" y="2106"/>
      <point x="2042" y="2106" type="curve" smooth="yes"/>
      <point x="1878" y="2106"/>
      <point x="1708" y="2203"/>
      <point x="1708" y="2408" type="curve" smooth="yes"/>
      <point x="1708" y="2613"/>
      <point x="1864" y="2726"/>
      <point x="2032" y="2726" type="curve" smooth="yes"/>
      <point x="2102" y="2726"/>
      <point x="2168" y="2691"/>
    </contour>
  </outline>
</glyph>
<glyph name="J.alt" format="2">
  <advance width="1256"/>
  <outline>
    <contour>
      <point x="732" y="1500" type="line"/>
      <point x="1487" y="1500" type="line"/>
      <point x="1487" y="1472" type="line"/>
      <point x="732" y="1472" type="line"/>
    </contour>
    <contour>
      <point x="972" y="1500" type="line"/>
      <point x="1287" y="1500" type="line"/>
      <point x="1067" y="560" type="line" smooth="yes"/>
      <point x="995" y="256"/>
      <point x="684" y="-20"/>
      <point x="362" y="-20" type="curve" smooth="yes"/>
      <point x="148" y="-20"/>
      <point x="10" y="129"/>
      <point x="10" y="319" type="curve" smooth="yes"/>
      <point x="10" y="483"/>
      <point x="104" y="580"/>
      <point x="224" y="580" type="curve" smooth="yes"/>
      <point x="334" y="580"/>
      <point x="416" y="514"/>
      <point x="416" y="392" type="curve" smooth="yes"/>
      <point x="416" y="292"/>
      <point x="332" y="206"/>
      <point x="214" y="206" type="curve" smooth="yes"/>
      <point x="129" y="206"/>
      <point x="61" y="265"/>
      <point x="43" y="306" type="curve"/>
      <point x="45" y="157"/>
      <point x="162" y="8"/>
      <point x="362" y="8" type="curve" smooth="yes"/>
      <point x="604" y="8"/>
      <point x="694" y="232"/>
      <point x="752" y="500" type="curve" smooth="yes"/>
    </contour>
  </outline>
</glyph>
<glyph name="R.alt" format="2">
  <advance width="3071"/>
  <outline>
    <contour>
      <point x="2754" y="0" type="line"/>
      <point x="2688" y="0"/>
      <point x="2533" y="0"/>
      <point x="2386" y="0" type="curve" smooth="yes"/>
      <point x="1268" y="0"/>
      <point x="2411" y="1548"/>
      <point x="1444" y="1548" type="curve" smooth="yes"/>
      <point x="1096" y="1548" type="line"/>
      <point x="1096" y="1577" type="line"/>
      <point x="1628" y="1577" type="line" smooth="yes"/>
      <point x="3094" y="1577"/>
      <point x="2148" y="57"/>
      <point x="2652" y="57" type="curve" smooth="yes"/>
      <point x="2697" y="57"/>
      <point x="2754" y="57"/>
      <point x="2754" y="57" type="curve"/>
    </contour>
    <contour>
      <point x="952" y="3072" type="line"/>
      <point x="1588" y="3072" type="line"/>
      <point x="870" y="0" type="line"/>
      <point x="236" y="0" type="line"/>
    </contour>
    <contour>
      <point x="-154" y="57" type="line"/>
      <point x="1320" y="57" type="line"/>
      <point x="1320" y="0" type="line"/>
      <point x="-154" y="0" type="line"/>
    </contour>
    <contour>
      <point x="1628" y="1569" type="curve" smooth="yes"/>
      <point x="1096" y="1569" type="line"/>
      <point x="1096" y="1606" type="line"/>
      <point x="1526" y="1606" type="line" smooth="yes"/>
      <point x="2104" y="1606"/>
      <point x="2314" y="2195"/>
      <point x="2314" y="2560" type="curve" smooth="yes"/>
      <point x="2314" y="2761"/>
      <point x="2246" y="3015"/>
      <point x="1894" y="3015" type="curve" smooth="yes"/>
      <point x="522" y="3015" type="line"/>
      <point x="522" y="3072" type="line"/>
      <point x="2038" y="3072" type="line" smooth="yes"/>
      <point x="2575" y="3072"/>
      <point x="2980" y="2909"/>
      <point x="2980" y="2458" type="curve" smooth="yes"/>
      <point x="2980" y="1885"/>
      <point x="2451" y="1569"/>
    </contour>
  </outline>
</glyph>
<glyph name="fj.lig" format="2">
  <advance width="2695"/>
  <outline>
    <contour>
      <point x="1544" y="164" type="curve" smooth="yes"/>
      <point x="1890" y="1827" type="line"/>
      <point x="282" y="1827" type="line"/>
      <point x="282" y="1884" type="line"/>
      <point x="2470" y="1884" type="line"/>
      <point x="2132" y="156" type="line" smooth="yes"/>
      <point x="2032" y="-358"/>
      <point x="1568" y="-860"/>
      <point x="1016" y="-860" type="curve" smooth="yes"/>
      <point x="643" y="-860"/>
      <point x="410" y="-627"/>
      <point x="410" y="-404" type="curve" smooth="yes"/>
      <point x="410" y="-195"/>
      <point x="572" y="-58"/>
      <point x="756" y="-58" type="curve" smooth="yes"/>
      <point x="920" y="-58"/>
      <point x="1078" y="-170"/>
      <point x="1078" y="-348" type="curve" smooth="yes"/>
      <point x="1078" y="-546"/>
      <point x="914" y="-674"/>
      <point x="744" y="-674" type="curve" smooth="yes"/>
      <point x="674" y="-674"/>
      <point x="612" y="-638"/>
      <point x="594" y="-604" type="curve"/>
      <point x="642" y="-700"/>
      <point x="789" y="-797"/>
      <point x="1006" y="-797" type="curve" smooth="yes"/>
      <point x="1375" y="-797"/>
      <point x="1440" y="-330"/>
    </contour>
    <contour>
      <point x="2378" y="2853" type="curve"/>
      <point x="2335" y="2947"/>
      <point x="2202" y="3052"/>
      <point x="1932" y="3052" type="curve" smooth="yes"/>
      <point x="1584" y="3052"/>
      <point x="1333" y="2712"/>
      <point x="1245" y="2212" type="curve" smooth="yes"/>
      <point x="842" y="-49" type="line" smooth="yes"/>
      <point x="726" y="-703"/>
      <point x="286" y="-1065"/>
      <point x="-246" y="-1065" type="curve" smooth="yes"/>
      <point x="-640" y="-1065"/>
      <point x="-840" y="-811"/>
      <point x="-840" y="-598" type="curve" smooth="yes"/>
      <point x="-840" y="-389"/>
      <point x="-710" y="-262"/>
      <point x="-526" y="-262" type="curve" smooth="yes"/>
      <point x="-362" y="-262"/>
      <point x="-192" y="-361"/>
      <point x="-192" y="-566" type="curve" smooth="yes"/>
      <point x="-192" y="-771"/>
      <point x="-352" y="-882"/>
      <point x="-520" y="-882" type="curve" smooth="yes"/>
      <point x="-604" y="-882"/>
      <point x="-664" y="-827"/>
      <point x="-678" y="-805" type="curve"/>
      <point x="-639" y="-885"/>
      <point x="-512" y="-1004"/>
      <point x="-293" y="-1004" type="curve" smooth="yes"/>
      <point x="-6" y="-1004"/>
      <point x="184" y="-664"/>
      <point x="270" y="-164" type="curve" smooth="yes"/>
      <point x="664" y="2097" type="line" smooth="yes"/>
      <point x="778" y="2753"/>
      <point x="1270" y="3113"/>
      <point x="1884" y="3113" type="curve" smooth="yes"/>
      <point x="2360" y="3113"/>
      <point x="2540" y="2859"/>
      <point x="2540" y="2646" type="curve" smooth="yes"/>
      <point x="2540" y="2437"/>
      <point x="2410" y="2310"/>
      <point x="2226" y="2310" type="curve" smooth="yes"/>
      <point x="2062" y="2310"/>
      <point x="1892" y="2409"/>
      <point x="1892" y="2614" type="curve" smooth="yes"/>
      <point x="1892" y="2819"/>
      <point x="2052" y="2930"/>
      <point x="2220" y="2930" type="curve" smooth="yes"/>
      <point x="2298" y="2930"/>
      <point x="2354" y="2883"/>
    </contour>
  </outline>
</glyph>
<glyph name="v.alt" format="2">
  <advance width="1061"/>
  <outline>
    <contour>
      <point x="430" y="950" type="curve"/>
      <point x="440" y="932" type="line"/>
      <point x="358" y="886"/>
      <point x="330" y="833"/>
      <point x="330" y="757" type="curve" smooth="yes"/>
      <point x="330" y="600"/>
      <point x="548" y="518"/>
      <point x="548" y="270" type="curve" smooth="yes"/>
      <point x="548" y="236"/>
      <point x="539" y="144"/>
      <point x="535" y="98" type="curve"/>
      <point x="834" y="257"/>
      <point x="1024" y="430"/>
      <point x="1024" y="688" type="curve" smooth="yes"/>
      <point x="1024" y="717"/>
      <point x="1021" y="743"/>
      <point x="1014" y="757" type="curve"/>
      <point x="1007" y="710"/>
      <point x="947" y="610"/>
      <point x="840" y="610" type="curve" smooth="yes"/>
      <point x="730" y="610"/>
      <point x="674" y="694"/>
      <point x="674" y="774" type="curve" smooth="yes"/>
      <point x="674" y="864"/>
      <point x="742" y="938"/>
      <point x="846" y="938" type="curve" smooth="yes"/>
      <point x="1002" y="938"/>
      <point x="1052" y="810"/>
      <point x="1052" y="688" type="curve" smooth="yes"/>
      <point x="1052" y="350"/>
      <point x="745" y="166"/>
      <point x="355" y="-24" type="curve"/>
      <point x="240" y="3" type="line"/>
      <point x="244" y="47"/>
      <point x="266" y="172"/>
      <point x="266" y="212" type="curve" smooth="yes"/>
      <point x="266" y="366"/>
      <point x="60" y="498"/>
      <point x="60" y="646" type="curve" smooth="yes"/>
      <point x="60" y="806"/>
      <point x="250" y="892"/>
    </contour>
  </outline>
</glyph>
